<mxfile host="app.diagrams.net" agent="Mozilla/5.0 (Windows NT 10.0; Win64; x64) AppleWebKit/537.36 (KHTML, like Gecko) Chrome/139.0.0.0 Safari/537.36" version="27.2.0">
  <diagram name="Page-1" id="bLNrcf6pQpVC4Prf4D9Y">
    <mxGraphModel dx="3169" dy="1727" grid="1" gridSize="3" guides="1" tooltips="1" connect="1" arrows="1" fold="1" page="1" pageScale="1" pageWidth="900" pageHeight="1600" math="0" shadow="0">
      <root>
        <mxCell id="0" />
        <mxCell id="1" parent="0" />
        <mxCell id="F6fdnvKWjwfyb-HSmEis-1" value="&lt;font style=&quot;font-size: 18px;&quot;&gt;User [Student] [Faculty]&lt;/font&gt;" style="swimlane;whiteSpace=wrap;html=1;" parent="1" vertex="1">
          <mxGeometry x="393" y="240" width="894" height="2304" as="geometry">
            <mxRectangle x="220" y="170" width="140" height="30" as="alternateBounds" />
          </mxGeometry>
        </mxCell>
        <mxCell id="F6fdnvKWjwfyb-HSmEis-6" value="" style="ellipse;fillColor=strokeColor;html=1;" parent="F6fdnvKWjwfyb-HSmEis-1" vertex="1">
          <mxGeometry x="405" y="50" width="30" height="30" as="geometry" />
        </mxCell>
        <mxCell id="F6fdnvKWjwfyb-HSmEis-7" value="&lt;font style=&quot;font-size: 16px;&quot;&gt;Access Website&lt;/font&gt;" style="rounded=1;whiteSpace=wrap;html=1;" parent="F6fdnvKWjwfyb-HSmEis-1" vertex="1">
          <mxGeometry x="360" y="110" width="120" height="60" as="geometry" />
        </mxCell>
        <mxCell id="F6fdnvKWjwfyb-HSmEis-8" value="" style="endArrow=classic;html=1;rounded=0;entryX=0.5;entryY=0;entryDx=0;entryDy=0;exitX=0.5;exitY=1;exitDx=0;exitDy=0;strokeWidth=1;" parent="F6fdnvKWjwfyb-HSmEis-1" source="F6fdnvKWjwfyb-HSmEis-6" target="F6fdnvKWjwfyb-HSmEis-7" edge="1">
          <mxGeometry width="50" height="50" relative="1" as="geometry">
            <mxPoint x="415" y="90" as="sourcePoint" />
            <mxPoint x="305" y="100" as="targetPoint" />
          </mxGeometry>
        </mxCell>
        <mxCell id="F6fdnvKWjwfyb-HSmEis-9" value="New User" style="rhombus;fontSize=16;" parent="F6fdnvKWjwfyb-HSmEis-1" vertex="1">
          <mxGeometry x="372.5" y="210" width="95" height="95" as="geometry" />
        </mxCell>
        <mxCell id="F6fdnvKWjwfyb-HSmEis-10" value="" style="endArrow=classic;html=1;rounded=0;entryX=0.5;entryY=0;entryDx=0;entryDy=0;exitX=0.5;exitY=1;exitDx=0;exitDy=0;" parent="F6fdnvKWjwfyb-HSmEis-1" source="F6fdnvKWjwfyb-HSmEis-7" target="F6fdnvKWjwfyb-HSmEis-9" edge="1">
          <mxGeometry width="50" height="50" relative="1" as="geometry">
            <mxPoint x="250" y="270" as="sourcePoint" />
            <mxPoint x="300" y="220" as="targetPoint" />
          </mxGeometry>
        </mxCell>
        <mxCell id="F6fdnvKWjwfyb-HSmEis-11" value="&lt;font style=&quot;font-size: 16px;&quot;&gt;Register&lt;/font&gt;" style="rounded=1;whiteSpace=wrap;html=1;" parent="F6fdnvKWjwfyb-HSmEis-1" vertex="1">
          <mxGeometry x="535" y="227.5" width="120" height="60" as="geometry" />
        </mxCell>
        <mxCell id="F6fdnvKWjwfyb-HSmEis-12" value="&lt;font style=&quot;font-size: 16px;&quot;&gt;Login&lt;/font&gt;" style="rounded=1;whiteSpace=wrap;html=1;" parent="F6fdnvKWjwfyb-HSmEis-1" vertex="1">
          <mxGeometry x="360" y="420" width="120" height="60" as="geometry" />
        </mxCell>
        <mxCell id="F6fdnvKWjwfyb-HSmEis-13" value="" style="endArrow=classic;html=1;rounded=0;exitX=1;exitY=0.5;exitDx=0;exitDy=0;entryX=0;entryY=0.5;entryDx=0;entryDy=0;" parent="F6fdnvKWjwfyb-HSmEis-1" source="F6fdnvKWjwfyb-HSmEis-9" target="F6fdnvKWjwfyb-HSmEis-11" edge="1">
          <mxGeometry width="50" height="50" relative="1" as="geometry">
            <mxPoint x="490" y="290" as="sourcePoint" />
            <mxPoint x="550" y="258" as="targetPoint" />
          </mxGeometry>
        </mxCell>
        <mxCell id="F6fdnvKWjwfyb-HSmEis-14" value="" style="endArrow=classic;html=1;rounded=0;entryX=0.5;entryY=0;entryDx=0;entryDy=0;exitX=0.5;exitY=1;exitDx=0;exitDy=0;" parent="F6fdnvKWjwfyb-HSmEis-1" source="F6fdnvKWjwfyb-HSmEis-9" target="F6fdnvKWjwfyb-HSmEis-12" edge="1">
          <mxGeometry width="50" height="50" relative="1" as="geometry">
            <mxPoint x="320" y="320" as="sourcePoint" />
            <mxPoint x="370" y="270" as="targetPoint" />
          </mxGeometry>
        </mxCell>
        <mxCell id="F6fdnvKWjwfyb-HSmEis-15" value="&lt;font style=&quot;font-size: 14px;&quot;&gt;Yes&lt;/font&gt;" style="text;html=1;align=center;verticalAlign=middle;whiteSpace=wrap;rounded=0;" parent="F6fdnvKWjwfyb-HSmEis-1" vertex="1">
          <mxGeometry x="467.5" y="220" width="60" height="30" as="geometry" />
        </mxCell>
        <mxCell id="F6fdnvKWjwfyb-HSmEis-16" value="&lt;font style=&quot;font-size: 14px;&quot;&gt;No&lt;/font&gt;" style="text;html=1;align=center;verticalAlign=middle;whiteSpace=wrap;rounded=0;" parent="F6fdnvKWjwfyb-HSmEis-1" vertex="1">
          <mxGeometry x="430" y="320" width="60" height="30" as="geometry" />
        </mxCell>
        <mxCell id="F6fdnvKWjwfyb-HSmEis-17" value="&lt;font style=&quot;font-size: 16px;&quot;&gt;Enter Credentials&lt;/font&gt;" style="rounded=1;whiteSpace=wrap;html=1;" parent="F6fdnvKWjwfyb-HSmEis-1" vertex="1">
          <mxGeometry x="570" y="420" width="120" height="60" as="geometry" />
        </mxCell>
        <mxCell id="F6fdnvKWjwfyb-HSmEis-18" value="&lt;font style=&quot;font-size: 16px;&quot;&gt;Enter Information&lt;/font&gt;" style="rounded=1;whiteSpace=wrap;html=1;" parent="F6fdnvKWjwfyb-HSmEis-1" vertex="1">
          <mxGeometry x="690" y="227.5" width="120" height="60" as="geometry" />
        </mxCell>
        <mxCell id="F6fdnvKWjwfyb-HSmEis-19" value="" style="endArrow=classic;html=1;rounded=0;exitX=1;exitY=0.5;exitDx=0;exitDy=0;entryX=0;entryY=0.5;entryDx=0;entryDy=0;" parent="F6fdnvKWjwfyb-HSmEis-1" source="F6fdnvKWjwfyb-HSmEis-12" target="F6fdnvKWjwfyb-HSmEis-17" edge="1">
          <mxGeometry width="50" height="50" relative="1" as="geometry">
            <mxPoint x="500" y="470" as="sourcePoint" />
            <mxPoint x="550" y="420" as="targetPoint" />
          </mxGeometry>
        </mxCell>
        <mxCell id="F6fdnvKWjwfyb-HSmEis-20" value="" style="endArrow=classic;html=1;rounded=0;exitX=1;exitY=0.5;exitDx=0;exitDy=0;entryX=0;entryY=0.5;entryDx=0;entryDy=0;" parent="F6fdnvKWjwfyb-HSmEis-1" source="F6fdnvKWjwfyb-HSmEis-11" target="F6fdnvKWjwfyb-HSmEis-18" edge="1">
          <mxGeometry width="50" height="50" relative="1" as="geometry">
            <mxPoint x="680" y="210" as="sourcePoint" />
            <mxPoint x="730" y="160" as="targetPoint" />
          </mxGeometry>
        </mxCell>
        <mxCell id="F6fdnvKWjwfyb-HSmEis-142" value="&lt;span style=&quot;font-size: 16px;&quot;&gt;View Notes/Lecture&lt;/span&gt;" style="rounded=1;whiteSpace=wrap;html=1;" parent="F6fdnvKWjwfyb-HSmEis-1" vertex="1">
          <mxGeometry x="595" y="1296" width="120" height="60" as="geometry" />
        </mxCell>
        <mxCell id="F6fdnvKWjwfyb-HSmEis-143" value="&lt;span style=&quot;font-size: 16px;&quot;&gt;Search Notes/Lecture&lt;/span&gt;" style="rounded=1;whiteSpace=wrap;html=1;" parent="F6fdnvKWjwfyb-HSmEis-1" vertex="1">
          <mxGeometry x="625" y="1380" width="120" height="60" as="geometry" />
        </mxCell>
        <mxCell id="F6fdnvKWjwfyb-HSmEis-139" value="&lt;font style=&quot;font-size: 16px;&quot;&gt;Upload&lt;/font&gt;&lt;div&gt;&lt;span style=&quot;font-size: 16px;&quot;&gt;Notes&lt;/span&gt;&lt;/div&gt;" style="rounded=1;whiteSpace=wrap;html=1;" parent="F6fdnvKWjwfyb-HSmEis-1" vertex="1">
          <mxGeometry x="620" y="1190" width="120" height="60" as="geometry" />
        </mxCell>
        <mxCell id="F6fdnvKWjwfyb-HSmEis-44" value="&lt;font style=&quot;font-size: 16px;&quot;&gt;User&lt;/font&gt;&lt;div&gt;&lt;font style=&quot;font-size: 16px;&quot;&gt;Dashboard&lt;/font&gt;&lt;/div&gt;" style="rounded=1;whiteSpace=wrap;html=1;" parent="F6fdnvKWjwfyb-HSmEis-1" vertex="1">
          <mxGeometry x="65" y="849" width="120" height="60" as="geometry" />
        </mxCell>
        <mxCell id="F6fdnvKWjwfyb-HSmEis-159" value="" style="ellipse;html=1;shape=endState;fillColor=strokeColor;" parent="F6fdnvKWjwfyb-HSmEis-1" vertex="1">
          <mxGeometry x="155" y="2175" width="30" height="30" as="geometry" />
        </mxCell>
        <mxCell id="F6fdnvKWjwfyb-HSmEis-160" value="&lt;span style=&quot;font-size: 16px;&quot;&gt;LogOut&lt;/span&gt;" style="rounded=1;whiteSpace=wrap;html=1;" parent="F6fdnvKWjwfyb-HSmEis-1" vertex="1">
          <mxGeometry x="110" y="2035" width="120" height="60" as="geometry" />
        </mxCell>
        <mxCell id="F6fdnvKWjwfyb-HSmEis-161" value="" style="endArrow=classic;html=1;rounded=0;exitX=0;exitY=0.5;exitDx=0;exitDy=0;entryX=0;entryY=0.5;entryDx=0;entryDy=0;" parent="F6fdnvKWjwfyb-HSmEis-1" source="F6fdnvKWjwfyb-HSmEis-44" target="F6fdnvKWjwfyb-HSmEis-160" edge="1">
          <mxGeometry width="50" height="50" relative="1" as="geometry">
            <mxPoint y="1020" as="sourcePoint" />
            <mxPoint x="50" y="970" as="targetPoint" />
            <Array as="points">
              <mxPoint x="10" y="880" />
              <mxPoint x="14" y="2065" />
            </Array>
          </mxGeometry>
        </mxCell>
        <mxCell id="F6fdnvKWjwfyb-HSmEis-162" value="" style="endArrow=classic;html=1;rounded=0;exitX=0.5;exitY=1;exitDx=0;exitDy=0;entryX=0.5;entryY=0;entryDx=0;entryDy=0;" parent="F6fdnvKWjwfyb-HSmEis-1" source="F6fdnvKWjwfyb-HSmEis-160" target="F6fdnvKWjwfyb-HSmEis-159" edge="1">
          <mxGeometry width="50" height="50" relative="1" as="geometry">
            <mxPoint x="265" y="2165" as="sourcePoint" />
            <mxPoint x="315" y="2115" as="targetPoint" />
          </mxGeometry>
        </mxCell>
        <mxCell id="F6fdnvKWjwfyb-HSmEis-141" value="" style="endArrow=classic;html=1;rounded=0;exitX=1;exitY=0.25;exitDx=0;exitDy=0;entryX=0;entryY=0.5;entryDx=0;entryDy=0;" parent="F6fdnvKWjwfyb-HSmEis-1" source="F6fdnvKWjwfyb-HSmEis-131" target="F6fdnvKWjwfyb-HSmEis-139" edge="1">
          <mxGeometry width="50" height="50" relative="1" as="geometry">
            <mxPoint x="520" y="1330" as="sourcePoint" />
            <mxPoint x="570" y="1280" as="targetPoint" />
          </mxGeometry>
        </mxCell>
        <mxCell id="F6fdnvKWjwfyb-HSmEis-148" value="" style="endArrow=classic;html=1;rounded=0;exitX=1;exitY=0.5;exitDx=0;exitDy=0;entryX=0;entryY=0.5;entryDx=0;entryDy=0;" parent="F6fdnvKWjwfyb-HSmEis-1" source="F6fdnvKWjwfyb-HSmEis-131" target="F6fdnvKWjwfyb-HSmEis-142" edge="1">
          <mxGeometry width="50" height="50" relative="1" as="geometry">
            <mxPoint x="530" y="1350" as="sourcePoint" />
            <mxPoint x="580" y="1300" as="targetPoint" />
            <Array as="points">
              <mxPoint x="565" y="1235" />
              <mxPoint x="566" y="1326" />
            </Array>
          </mxGeometry>
        </mxCell>
        <mxCell id="F6fdnvKWjwfyb-HSmEis-149" value="" style="endArrow=classic;html=1;rounded=0;exitX=1;exitY=0.75;exitDx=0;exitDy=0;entryX=0;entryY=0.5;entryDx=0;entryDy=0;" parent="F6fdnvKWjwfyb-HSmEis-1" source="F6fdnvKWjwfyb-HSmEis-131" target="F6fdnvKWjwfyb-HSmEis-143" edge="1">
          <mxGeometry width="50" height="50" relative="1" as="geometry">
            <mxPoint x="475" y="1395" as="sourcePoint" />
            <mxPoint x="525" y="1345" as="targetPoint" />
            <Array as="points">
              <mxPoint x="530" y="1250" />
              <mxPoint x="530" y="1410" />
            </Array>
          </mxGeometry>
        </mxCell>
        <mxCell id="F6fdnvKWjwfyb-HSmEis-56" value="&lt;span style=&quot;font-size: 16px;&quot;&gt;Blogs&lt;/span&gt;&lt;div&gt;&lt;span style=&quot;font-size: 16px;&quot;&gt;Page&lt;/span&gt;&lt;/div&gt;" style="rounded=1;whiteSpace=wrap;html=1;" parent="F6fdnvKWjwfyb-HSmEis-1" vertex="1">
          <mxGeometry x="342.5" y="946.5" width="120" height="60" as="geometry" />
        </mxCell>
        <mxCell id="F6fdnvKWjwfyb-HSmEis-61" value="&lt;span style=&quot;font-size: 16px;&quot;&gt;Post&lt;/span&gt;&lt;div&gt;&lt;span style=&quot;font-size: 16px;&quot;&gt;Blog&lt;/span&gt;&lt;/div&gt;" style="rounded=1;whiteSpace=wrap;html=1;" parent="F6fdnvKWjwfyb-HSmEis-1" vertex="1">
          <mxGeometry x="615" y="946.5" width="120" height="60" as="geometry" />
        </mxCell>
        <mxCell id="F6fdnvKWjwfyb-HSmEis-62" value="" style="endArrow=classic;html=1;rounded=0;exitX=1;exitY=0.5;exitDx=0;exitDy=0;entryX=0;entryY=0.5;entryDx=0;entryDy=0;" parent="F6fdnvKWjwfyb-HSmEis-1" source="F6fdnvKWjwfyb-HSmEis-56" target="F6fdnvKWjwfyb-HSmEis-61" edge="1">
          <mxGeometry width="50" height="50" relative="1" as="geometry">
            <mxPoint x="496" y="1079" as="sourcePoint" />
            <mxPoint x="546" y="1029" as="targetPoint" />
          </mxGeometry>
        </mxCell>
        <mxCell id="F6fdnvKWjwfyb-HSmEis-65" value="&lt;span style=&quot;font-size: 16px;&quot;&gt;Read Blogs&lt;/span&gt;" style="rounded=1;whiteSpace=wrap;html=1;" parent="F6fdnvKWjwfyb-HSmEis-1" vertex="1">
          <mxGeometry x="615" y="1020" width="120" height="60" as="geometry" />
        </mxCell>
        <mxCell id="F6fdnvKWjwfyb-HSmEis-66" value="" style="endArrow=classic;html=1;rounded=0;entryX=0;entryY=0.5;entryDx=0;entryDy=0;exitX=0.5;exitY=1;exitDx=0;exitDy=0;" parent="F6fdnvKWjwfyb-HSmEis-1" source="F6fdnvKWjwfyb-HSmEis-56" target="F6fdnvKWjwfyb-HSmEis-65" edge="1">
          <mxGeometry width="50" height="50" relative="1" as="geometry">
            <mxPoint x="510" y="1100" as="sourcePoint" />
            <mxPoint x="560" y="1050" as="targetPoint" />
            <Array as="points">
              <mxPoint x="403" y="1050" />
            </Array>
          </mxGeometry>
        </mxCell>
        <mxCell id="F6fdnvKWjwfyb-HSmEis-67" value="&lt;span style=&quot;font-size: 16px;&quot;&gt;Lecture&lt;/span&gt;&lt;div&gt;&lt;span style=&quot;font-size: 16px;&quot;&gt;Materials Page&lt;/span&gt;&lt;/div&gt;" style="rounded=1;whiteSpace=wrap;html=1;" parent="F6fdnvKWjwfyb-HSmEis-1" vertex="1">
          <mxGeometry x="384" y="1115" width="120" height="60" as="geometry" />
        </mxCell>
        <mxCell id="F6fdnvKWjwfyb-HSmEis-68" value="&lt;font style=&quot;font-size: 16px;&quot;&gt;Upload&lt;/font&gt;&lt;div&gt;&lt;span style=&quot;font-size: 16px;&quot;&gt;Materials&lt;/span&gt;&lt;/div&gt;" style="rounded=1;whiteSpace=wrap;html=1;" parent="F6fdnvKWjwfyb-HSmEis-1" vertex="1">
          <mxGeometry x="620" y="1115" width="120" height="60" as="geometry" />
        </mxCell>
        <mxCell id="F6fdnvKWjwfyb-HSmEis-70" value="" style="endArrow=classic;html=1;rounded=0;exitX=1;exitY=0.5;exitDx=0;exitDy=0;entryX=0;entryY=0.5;entryDx=0;entryDy=0;" parent="F6fdnvKWjwfyb-HSmEis-1" source="F6fdnvKWjwfyb-HSmEis-67" target="F6fdnvKWjwfyb-HSmEis-68" edge="1">
          <mxGeometry width="50" height="50" relative="1" as="geometry">
            <mxPoint x="494" y="1326" as="sourcePoint" />
            <mxPoint x="544" y="1276" as="targetPoint" />
          </mxGeometry>
        </mxCell>
        <mxCell id="F6fdnvKWjwfyb-HSmEis-130" value="User &#xa;Type" style="rhombus;fontSize=16;" parent="F6fdnvKWjwfyb-HSmEis-1" vertex="1">
          <mxGeometry x="275" y="1150" width="80" height="80" as="geometry" />
        </mxCell>
        <mxCell id="F6fdnvKWjwfyb-HSmEis-131" value="&lt;span style=&quot;font-size: 16px;&quot;&gt;Study Materials&lt;/span&gt;&lt;div&gt;&lt;span style=&quot;font-size: 16px;&quot;&gt;Page&lt;/span&gt;&lt;/div&gt;" style="rounded=1;whiteSpace=wrap;html=1;" parent="F6fdnvKWjwfyb-HSmEis-1" vertex="1">
          <mxGeometry x="384" y="1205" width="120" height="60" as="geometry" />
        </mxCell>
        <mxCell id="F6fdnvKWjwfyb-HSmEis-133" value="" style="endArrow=classic;html=1;rounded=0;exitX=0.5;exitY=0;exitDx=0;exitDy=0;entryX=0;entryY=0.5;entryDx=0;entryDy=0;" parent="F6fdnvKWjwfyb-HSmEis-1" source="F6fdnvKWjwfyb-HSmEis-130" target="F6fdnvKWjwfyb-HSmEis-67" edge="1">
          <mxGeometry width="50" height="50" relative="1" as="geometry">
            <mxPoint x="305" y="1140" as="sourcePoint" />
            <mxPoint x="355" y="1090" as="targetPoint" />
            <Array as="points">
              <mxPoint x="315" y="1145" />
            </Array>
          </mxGeometry>
        </mxCell>
        <mxCell id="F6fdnvKWjwfyb-HSmEis-134" value="" style="endArrow=classic;html=1;rounded=0;entryX=0;entryY=0.5;entryDx=0;entryDy=0;exitX=0.5;exitY=1;exitDx=0;exitDy=0;" parent="F6fdnvKWjwfyb-HSmEis-1" source="F6fdnvKWjwfyb-HSmEis-130" target="F6fdnvKWjwfyb-HSmEis-131" edge="1">
          <mxGeometry width="50" height="50" relative="1" as="geometry">
            <mxPoint x="305" y="1295" as="sourcePoint" />
            <mxPoint x="355" y="1245" as="targetPoint" />
            <Array as="points">
              <mxPoint x="315" y="1235" />
            </Array>
          </mxGeometry>
        </mxCell>
        <mxCell id="F6fdnvKWjwfyb-HSmEis-137" value="&lt;font style=&quot;font-size: 14px;&quot;&gt;Student&lt;/font&gt;" style="text;html=1;align=center;verticalAlign=middle;whiteSpace=wrap;rounded=0;" parent="F6fdnvKWjwfyb-HSmEis-1" vertex="1">
          <mxGeometry x="320" y="1240" width="60" height="30" as="geometry" />
        </mxCell>
        <mxCell id="F6fdnvKWjwfyb-HSmEis-138" value="&lt;font style=&quot;font-size: 14px;&quot;&gt;Faculty&lt;/font&gt;" style="text;html=1;align=center;verticalAlign=middle;whiteSpace=wrap;rounded=0;" parent="F6fdnvKWjwfyb-HSmEis-1" vertex="1">
          <mxGeometry x="320" y="1115" width="60" height="30" as="geometry" />
        </mxCell>
        <mxCell id="F6fdnvKWjwfyb-HSmEis-73" value="&lt;span style=&quot;font-size: 16px;&quot;&gt;Lost &amp;amp; Found&amp;nbsp;&lt;/span&gt;&lt;div&gt;&lt;span style=&quot;font-size: 16px;&quot;&gt;Page&lt;/span&gt;&lt;/div&gt;" style="rounded=1;whiteSpace=wrap;html=1;" parent="F6fdnvKWjwfyb-HSmEis-1" vertex="1">
          <mxGeometry x="347.5" y="1545" width="120" height="60" as="geometry" />
        </mxCell>
        <mxCell id="F6fdnvKWjwfyb-HSmEis-74" value="&lt;span style=&quot;font-size: 16px;&quot;&gt;View Item&lt;/span&gt;" style="rounded=1;whiteSpace=wrap;html=1;" parent="F6fdnvKWjwfyb-HSmEis-1" vertex="1">
          <mxGeometry x="606" y="1510" width="120" height="60" as="geometry" />
        </mxCell>
        <mxCell id="F6fdnvKWjwfyb-HSmEis-75" value="&lt;span style=&quot;font-size: 16px;&quot;&gt;Search Item&lt;/span&gt;" style="rounded=1;whiteSpace=wrap;html=1;" parent="F6fdnvKWjwfyb-HSmEis-1" vertex="1">
          <mxGeometry x="606" y="1622" width="120" height="60" as="geometry" />
        </mxCell>
        <mxCell id="F6fdnvKWjwfyb-HSmEis-77" value="" style="endArrow=classic;html=1;rounded=0;exitX=1;exitY=0.25;exitDx=0;exitDy=0;entryX=0;entryY=0.5;entryDx=0;entryDy=0;" parent="F6fdnvKWjwfyb-HSmEis-1" source="F6fdnvKWjwfyb-HSmEis-73" target="F6fdnvKWjwfyb-HSmEis-74" edge="1">
          <mxGeometry width="50" height="50" relative="1" as="geometry">
            <mxPoint x="823" y="1784" as="sourcePoint" />
            <mxPoint x="873" y="1734" as="targetPoint" />
            <Array as="points">
              <mxPoint x="508" y="1560" />
              <mxPoint x="508" y="1540" />
            </Array>
          </mxGeometry>
        </mxCell>
        <mxCell id="F6fdnvKWjwfyb-HSmEis-78" value="" style="endArrow=classic;html=1;rounded=0;exitX=1;exitY=0.5;exitDx=0;exitDy=0;entryX=0;entryY=0.5;entryDx=0;entryDy=0;" parent="F6fdnvKWjwfyb-HSmEis-1" source="F6fdnvKWjwfyb-HSmEis-73" target="F6fdnvKWjwfyb-HSmEis-75" edge="1">
          <mxGeometry width="50" height="50" relative="1" as="geometry">
            <mxPoint x="515" y="1672" as="sourcePoint" />
            <mxPoint x="565" y="1622" as="targetPoint" />
            <Array as="points">
              <mxPoint x="508" y="1575" />
              <mxPoint x="508" y="1652" />
            </Array>
          </mxGeometry>
        </mxCell>
        <mxCell id="F6fdnvKWjwfyb-HSmEis-79" value="" style="endArrow=classic;html=1;rounded=0;exitX=1;exitY=0.75;exitDx=0;exitDy=0;entryX=0;entryY=0.5;entryDx=0;entryDy=0;" parent="F6fdnvKWjwfyb-HSmEis-1" source="F6fdnvKWjwfyb-HSmEis-73" target="F6fdnvKWjwfyb-HSmEis-76" edge="1">
          <mxGeometry width="50" height="50" relative="1" as="geometry">
            <mxPoint x="473" y="1728" as="sourcePoint" />
            <mxPoint x="523" y="1678" as="targetPoint" />
            <Array as="points">
              <mxPoint x="487" y="1590" />
              <mxPoint x="487" y="1848" />
            </Array>
          </mxGeometry>
        </mxCell>
        <mxCell id="F6fdnvKWjwfyb-HSmEis-152" value="&lt;font style=&quot;font-size: 14px;&quot;&gt;Yes&lt;/font&gt;" style="text;html=1;align=center;verticalAlign=middle;whiteSpace=wrap;rounded=0;" parent="F6fdnvKWjwfyb-HSmEis-1" vertex="1">
          <mxGeometry x="1120" y="1332.5" width="60" height="30" as="geometry" />
        </mxCell>
        <mxCell id="F6fdnvKWjwfyb-HSmEis-154" value="&lt;font style=&quot;font-size: 14px;&quot;&gt;No&lt;/font&gt;" style="text;html=1;align=center;verticalAlign=middle;whiteSpace=wrap;rounded=0;" parent="F6fdnvKWjwfyb-HSmEis-1" vertex="1">
          <mxGeometry x="1110" y="1475" width="60" height="30" as="geometry" />
        </mxCell>
        <mxCell id="F6fdnvKWjwfyb-HSmEis-120" value="" style="endArrow=classic;html=1;rounded=0;entryX=0;entryY=0.5;entryDx=0;entryDy=0;exitX=1;exitY=0.5;exitDx=0;exitDy=0;" parent="F6fdnvKWjwfyb-HSmEis-1" source="F6fdnvKWjwfyb-HSmEis-44" target="F6fdnvKWjwfyb-HSmEis-56" edge="1">
          <mxGeometry width="50" height="50" relative="1" as="geometry">
            <mxPoint x="242.01499999999987" y="976.8750000000002" as="sourcePoint" />
            <mxPoint x="320" y="1055" as="targetPoint" />
            <Array as="points">
              <mxPoint x="245" y="880" />
              <mxPoint x="245" y="977" />
            </Array>
          </mxGeometry>
        </mxCell>
        <mxCell id="F6fdnvKWjwfyb-HSmEis-132" value="" style="endArrow=classic;html=1;rounded=0;exitX=1;exitY=0.75;exitDx=0;exitDy=0;entryX=0;entryY=0.5;entryDx=0;entryDy=0;" parent="F6fdnvKWjwfyb-HSmEis-1" source="F6fdnvKWjwfyb-HSmEis-44" target="F6fdnvKWjwfyb-HSmEis-130" edge="1">
          <mxGeometry width="50" height="50" relative="1" as="geometry">
            <mxPoint x="242.3449999999998" y="1160.3400000000001" as="sourcePoint" />
            <mxPoint x="330" y="1070" as="targetPoint" />
            <Array as="points">
              <mxPoint x="205" y="895" />
              <mxPoint x="206" y="1190" />
            </Array>
          </mxGeometry>
        </mxCell>
        <mxCell id="F6fdnvKWjwfyb-HSmEis-122" value="" style="endArrow=classic;html=1;rounded=0;entryX=0;entryY=0.5;entryDx=0;entryDy=0;exitX=0.75;exitY=1;exitDx=0;exitDy=0;" parent="F6fdnvKWjwfyb-HSmEis-1" source="F6fdnvKWjwfyb-HSmEis-44" target="F6fdnvKWjwfyb-HSmEis-73" edge="1">
          <mxGeometry width="50" height="50" relative="1" as="geometry">
            <mxPoint x="239.58500000000004" y="1544.2800000000002" as="sourcePoint" />
            <mxPoint x="320" y="1335" as="targetPoint" />
            <Array as="points">
              <mxPoint x="165" y="1575" />
            </Array>
          </mxGeometry>
        </mxCell>
        <mxCell id="F6fdnvKWjwfyb-HSmEis-123" value="" style="endArrow=classic;html=1;rounded=0;entryX=0;entryY=0.5;entryDx=0;entryDy=0;exitX=0.25;exitY=1;exitDx=0;exitDy=0;" parent="F6fdnvKWjwfyb-HSmEis-1" source="F6fdnvKWjwfyb-HSmEis-44" target="F6fdnvKWjwfyb-HSmEis-94" edge="1">
          <mxGeometry width="50" height="50" relative="1" as="geometry">
            <mxPoint x="242.66499999999996" y="1944.0149999999999" as="sourcePoint" />
            <mxPoint x="335" y="1590" as="targetPoint" />
            <Array as="points">
              <mxPoint x="90" y="1970" />
            </Array>
          </mxGeometry>
        </mxCell>
        <mxCell id="F6fdnvKWjwfyb-HSmEis-126" value="&lt;div&gt;&lt;span style=&quot;font-size: 16px;&quot;&gt;Student&lt;/span&gt;&lt;/div&gt;&lt;span style=&quot;font-size: 16px;&quot;&gt;TSF Page&lt;/span&gt;" style="rounded=1;whiteSpace=wrap;html=1;" parent="F6fdnvKWjwfyb-HSmEis-1" vertex="1">
          <mxGeometry x="385" y="840" width="120" height="60" as="geometry" />
        </mxCell>
        <mxCell id="wtH1HohZmeT8aonh87yZ-3" value="&lt;div&gt;&lt;span style=&quot;font-size: 16px;&quot;&gt;View TSF&lt;/span&gt;&lt;/div&gt;" style="rounded=1;whiteSpace=wrap;html=1;" vertex="1" parent="F6fdnvKWjwfyb-HSmEis-1">
          <mxGeometry x="470" y="755" width="120" height="60" as="geometry" />
        </mxCell>
        <mxCell id="wtH1HohZmeT8aonh87yZ-4" value="&lt;div&gt;&lt;span style=&quot;font-size: 16px;&quot;&gt;Search TSF&lt;/span&gt;&lt;/div&gt;" style="rounded=1;whiteSpace=wrap;html=1;" vertex="1" parent="F6fdnvKWjwfyb-HSmEis-1">
          <mxGeometry x="570" y="865" width="120" height="60" as="geometry" />
        </mxCell>
        <mxCell id="wtH1HohZmeT8aonh87yZ-12" value="" style="endArrow=classic;html=1;rounded=0;exitX=1;exitY=0.5;exitDx=0;exitDy=0;entryX=0;entryY=0.5;entryDx=0;entryDy=0;" edge="1" parent="F6fdnvKWjwfyb-HSmEis-1" source="F6fdnvKWjwfyb-HSmEis-126" target="wtH1HohZmeT8aonh87yZ-4">
          <mxGeometry width="50" height="50" relative="1" as="geometry">
            <mxPoint x="645" y="850" as="sourcePoint" />
            <mxPoint x="695" y="800" as="targetPoint" />
          </mxGeometry>
        </mxCell>
        <mxCell id="wtH1HohZmeT8aonh87yZ-13" value="" style="endArrow=classic;html=1;rounded=0;entryX=0.5;entryY=1;entryDx=0;entryDy=0;exitX=1;exitY=0.25;exitDx=0;exitDy=0;" edge="1" parent="F6fdnvKWjwfyb-HSmEis-1" source="F6fdnvKWjwfyb-HSmEis-126" target="wtH1HohZmeT8aonh87yZ-3">
          <mxGeometry width="50" height="50" relative="1" as="geometry">
            <mxPoint x="500" y="890" as="sourcePoint" />
            <mxPoint x="550" y="840" as="targetPoint" />
            <Array as="points">
              <mxPoint x="525" y="855" />
            </Array>
          </mxGeometry>
        </mxCell>
        <mxCell id="wtH1HohZmeT8aonh87yZ-24" value="" style="endArrow=classic;html=1;rounded=0;exitX=0.5;exitY=0;exitDx=0;exitDy=0;entryX=0.5;entryY=0;entryDx=0;entryDy=0;" edge="1" parent="F6fdnvKWjwfyb-HSmEis-1" source="wtH1HohZmeT8aonh87yZ-3" target="F6fdnvKWjwfyb-HSmEis-44">
          <mxGeometry width="50" height="50" relative="1" as="geometry">
            <mxPoint x="515" y="689" as="sourcePoint" />
            <mxPoint x="565" y="639" as="targetPoint" />
            <Array as="points">
              <mxPoint x="530" y="627" />
              <mxPoint x="125" y="627" />
            </Array>
          </mxGeometry>
        </mxCell>
        <mxCell id="wtH1HohZmeT8aonh87yZ-29" value="" style="endArrow=classic;html=1;rounded=0;exitX=0;exitY=0.75;exitDx=0;exitDy=0;entryX=0.5;entryY=1;entryDx=0;entryDy=0;" edge="1" parent="F6fdnvKWjwfyb-HSmEis-1" source="F6fdnvKWjwfyb-HSmEis-142" target="F6fdnvKWjwfyb-HSmEis-44">
          <mxGeometry width="50" height="50" relative="1" as="geometry">
            <mxPoint x="317" y="1382" as="sourcePoint" />
            <mxPoint x="367" y="1332" as="targetPoint" />
            <Array as="points">
              <mxPoint x="125" y="1341" />
            </Array>
          </mxGeometry>
        </mxCell>
        <mxCell id="wtH1HohZmeT8aonh87yZ-38" value="" style="endArrow=classic;html=1;rounded=0;entryX=0;entryY=1;entryDx=0;entryDy=0;exitX=0.5;exitY=0;exitDx=0;exitDy=0;" edge="1" parent="F6fdnvKWjwfyb-HSmEis-1" source="F6fdnvKWjwfyb-HSmEis-74" target="F6fdnvKWjwfyb-HSmEis-44">
          <mxGeometry width="50" height="50" relative="1" as="geometry">
            <mxPoint x="290" y="1544" as="sourcePoint" />
            <mxPoint x="340" y="1494" as="targetPoint" />
            <Array as="points">
              <mxPoint x="666" y="1488" />
              <mxPoint x="65" y="1488" />
            </Array>
          </mxGeometry>
        </mxCell>
        <mxCell id="wtH1HohZmeT8aonh87yZ-39" value="" style="endArrow=classic;html=1;rounded=0;entryX=1;entryY=1;entryDx=0;entryDy=0;exitX=0.5;exitY=1;exitDx=0;exitDy=0;" edge="1" parent="F6fdnvKWjwfyb-HSmEis-1" source="F6fdnvKWjwfyb-HSmEis-65" target="F6fdnvKWjwfyb-HSmEis-44">
          <mxGeometry width="50" height="50" relative="1" as="geometry">
            <mxPoint x="140" y="1082" as="sourcePoint" />
            <mxPoint x="190" y="1032" as="targetPoint" />
            <Array as="points">
              <mxPoint x="675" y="1104" />
              <mxPoint x="185" y="1101" />
            </Array>
          </mxGeometry>
        </mxCell>
        <mxCell id="F6fdnvKWjwfyb-HSmEis-94" value="&lt;span style=&quot;font-size: 16px;&quot;&gt;Q&amp;amp;A Page&lt;/span&gt;" style="rounded=1;whiteSpace=wrap;html=1;" parent="F6fdnvKWjwfyb-HSmEis-1" vertex="1">
          <mxGeometry x="351" y="1940" width="120" height="60" as="geometry" />
        </mxCell>
        <mxCell id="F6fdnvKWjwfyb-HSmEis-95" value="&lt;span style=&quot;font-size: 16px;&quot;&gt;View post&lt;/span&gt;" style="rounded=1;whiteSpace=wrap;html=1;" parent="F6fdnvKWjwfyb-HSmEis-1" vertex="1">
          <mxGeometry x="538.5" y="1905" width="120" height="60" as="geometry" />
        </mxCell>
        <mxCell id="F6fdnvKWjwfyb-HSmEis-96" value="&lt;span style=&quot;font-size: 16px;&quot;&gt;Search topic&lt;/span&gt;" style="rounded=1;whiteSpace=wrap;html=1;" parent="F6fdnvKWjwfyb-HSmEis-1" vertex="1">
          <mxGeometry x="538.5" y="2031" width="120" height="60" as="geometry" />
        </mxCell>
        <mxCell id="F6fdnvKWjwfyb-HSmEis-97" value="&lt;span style=&quot;font-size: 16px;&quot;&gt;Submit Question&lt;/span&gt;" style="rounded=1;whiteSpace=wrap;html=1;" parent="F6fdnvKWjwfyb-HSmEis-1" vertex="1">
          <mxGeometry x="538.5" y="2171" width="120" height="60" as="geometry" />
        </mxCell>
        <mxCell id="F6fdnvKWjwfyb-HSmEis-99" value="&lt;span style=&quot;font-size: 16px;&quot;&gt;Submit Answer&lt;/span&gt;" style="rounded=1;whiteSpace=wrap;html=1;" parent="F6fdnvKWjwfyb-HSmEis-1" vertex="1">
          <mxGeometry x="707.5" y="1905" width="120" height="60" as="geometry" />
        </mxCell>
        <mxCell id="F6fdnvKWjwfyb-HSmEis-100" value="" style="endArrow=classic;html=1;rounded=0;exitX=1;exitY=0.5;exitDx=0;exitDy=0;entryX=0;entryY=0.5;entryDx=0;entryDy=0;" parent="F6fdnvKWjwfyb-HSmEis-1" source="F6fdnvKWjwfyb-HSmEis-95" target="F6fdnvKWjwfyb-HSmEis-99" edge="1">
          <mxGeometry width="50" height="50" relative="1" as="geometry">
            <mxPoint x="735.5" y="2060" as="sourcePoint" />
            <mxPoint x="785.5" y="2010" as="targetPoint" />
          </mxGeometry>
        </mxCell>
        <mxCell id="F6fdnvKWjwfyb-HSmEis-101" value="" style="endArrow=classic;html=1;rounded=0;exitX=1;exitY=0.25;exitDx=0;exitDy=0;entryX=0;entryY=0.5;entryDx=0;entryDy=0;" parent="F6fdnvKWjwfyb-HSmEis-1" source="F6fdnvKWjwfyb-HSmEis-94" target="F6fdnvKWjwfyb-HSmEis-95" edge="1">
          <mxGeometry width="50" height="50" relative="1" as="geometry">
            <mxPoint x="427.5" y="2095" as="sourcePoint" />
            <mxPoint x="477.5" y="2045" as="targetPoint" />
            <Array as="points">
              <mxPoint x="503.5" y="1955" />
              <mxPoint x="503.5" y="1935" />
            </Array>
          </mxGeometry>
        </mxCell>
        <mxCell id="F6fdnvKWjwfyb-HSmEis-102" value="" style="endArrow=classic;html=1;rounded=0;exitX=1;exitY=0.5;exitDx=0;exitDy=0;entryX=0;entryY=0.5;entryDx=0;entryDy=0;" parent="F6fdnvKWjwfyb-HSmEis-1" source="F6fdnvKWjwfyb-HSmEis-94" target="F6fdnvKWjwfyb-HSmEis-96" edge="1">
          <mxGeometry width="50" height="50" relative="1" as="geometry">
            <mxPoint x="471.0000000000002" y="1980" as="sourcePoint" />
            <mxPoint x="538.5" y="1995" as="targetPoint" />
            <Array as="points">
              <mxPoint x="503.5" y="1970" />
              <mxPoint x="507" y="2061" />
            </Array>
          </mxGeometry>
        </mxCell>
        <mxCell id="F6fdnvKWjwfyb-HSmEis-103" value="" style="endArrow=classic;html=1;rounded=0;exitX=1;exitY=0.75;exitDx=0;exitDy=0;entryX=0;entryY=0.5;entryDx=0;entryDy=0;" parent="F6fdnvKWjwfyb-HSmEis-1" source="F6fdnvKWjwfyb-HSmEis-94" target="F6fdnvKWjwfyb-HSmEis-97" edge="1">
          <mxGeometry width="50" height="50" relative="1" as="geometry">
            <mxPoint x="468.5" y="2070" as="sourcePoint" />
            <mxPoint x="518.5" y="2020" as="targetPoint" />
            <Array as="points">
              <mxPoint x="483.5" y="1985" />
              <mxPoint x="483.5" y="2201" />
            </Array>
          </mxGeometry>
        </mxCell>
        <mxCell id="F6fdnvKWjwfyb-HSmEis-76" value="&lt;span style=&quot;font-size: 16px;&quot;&gt;Post Item&lt;/span&gt;" style="rounded=1;whiteSpace=wrap;html=1;" parent="F6fdnvKWjwfyb-HSmEis-1" vertex="1">
          <mxGeometry x="606" y="1818" width="120" height="60" as="geometry" />
        </mxCell>
        <mxCell id="F6fdnvKWjwfyb-HSmEis-104" value="&lt;span style=&quot;font-size: 16px;&quot;&gt;Verify Question&lt;/span&gt;" style="rounded=1;whiteSpace=wrap;html=1;" parent="F6fdnvKWjwfyb-HSmEis-1" vertex="1">
          <mxGeometry x="928.5" y="2171" width="120" height="60" as="geometry" />
        </mxCell>
        <mxCell id="F6fdnvKWjwfyb-HSmEis-105" value="" style="endArrow=classic;html=1;rounded=0;exitX=1;exitY=0.5;exitDx=0;exitDy=0;entryX=0;entryY=0.5;entryDx=0;entryDy=0;" parent="F6fdnvKWjwfyb-HSmEis-1" source="F6fdnvKWjwfyb-HSmEis-97" target="F6fdnvKWjwfyb-HSmEis-104" edge="1">
          <mxGeometry width="50" height="50" relative="1" as="geometry">
            <mxPoint x="718.5" y="2190" as="sourcePoint" />
            <mxPoint x="768.5" y="2140" as="targetPoint" />
          </mxGeometry>
        </mxCell>
        <mxCell id="F6fdnvKWjwfyb-HSmEis-106" value="&lt;span style=&quot;font-size: 16px;&quot;&gt;Save to&lt;/span&gt;&lt;div&gt;&lt;span style=&quot;font-size: 16px;&quot;&gt;Database&lt;/span&gt;&lt;/div&gt;" style="rounded=1;whiteSpace=wrap;html=1;" parent="F6fdnvKWjwfyb-HSmEis-1" vertex="1">
          <mxGeometry x="1158.5" y="2171" width="120" height="60" as="geometry" />
        </mxCell>
        <mxCell id="F6fdnvKWjwfyb-HSmEis-107" value="" style="endArrow=classic;html=1;rounded=0;exitX=1;exitY=0.5;exitDx=0;exitDy=0;entryX=0;entryY=0.5;entryDx=0;entryDy=0;" parent="F6fdnvKWjwfyb-HSmEis-1" source="F6fdnvKWjwfyb-HSmEis-104" target="F6fdnvKWjwfyb-HSmEis-106" edge="1">
          <mxGeometry width="50" height="50" relative="1" as="geometry">
            <mxPoint x="1088.5" y="2155" as="sourcePoint" />
            <mxPoint x="1138.5" y="2105" as="targetPoint" />
          </mxGeometry>
        </mxCell>
        <mxCell id="F6fdnvKWjwfyb-HSmEis-114" value="&lt;font style=&quot;font-size: 14px;&quot;&gt;Yes&lt;/font&gt;" style="text;html=1;align=center;verticalAlign=middle;whiteSpace=wrap;rounded=0;" parent="F6fdnvKWjwfyb-HSmEis-1" vertex="1">
          <mxGeometry x="1168.5" y="1995" width="60" height="30" as="geometry" />
        </mxCell>
        <mxCell id="F6fdnvKWjwfyb-HSmEis-115" value="&lt;font style=&quot;font-size: 14px;&quot;&gt;No&lt;/font&gt;" style="text;html=1;align=center;verticalAlign=middle;whiteSpace=wrap;rounded=0;" parent="F6fdnvKWjwfyb-HSmEis-1" vertex="1">
          <mxGeometry x="1163.5" y="2110" width="60" height="30" as="geometry" />
        </mxCell>
        <mxCell id="F6fdnvKWjwfyb-HSmEis-82" value="&lt;span style=&quot;font-size: 16px;&quot;&gt;Verify post&lt;/span&gt;" style="rounded=1;whiteSpace=wrap;html=1;" parent="F6fdnvKWjwfyb-HSmEis-1" vertex="1">
          <mxGeometry x="984" y="1818" width="120" height="60" as="geometry" />
        </mxCell>
        <mxCell id="F6fdnvKWjwfyb-HSmEis-83" value="&lt;span style=&quot;font-size: 16px;&quot;&gt;Save post to&lt;/span&gt;&lt;div&gt;&lt;span style=&quot;font-size: 16px;&quot;&gt;Database&lt;/span&gt;&lt;/div&gt;" style="rounded=1;whiteSpace=wrap;html=1;" parent="F6fdnvKWjwfyb-HSmEis-1" vertex="1">
          <mxGeometry x="1185" y="1818" width="120" height="60" as="geometry" />
        </mxCell>
        <mxCell id="F6fdnvKWjwfyb-HSmEis-85" value="" style="endArrow=classic;html=1;rounded=0;exitX=1;exitY=0.5;exitDx=0;exitDy=0;entryX=0;entryY=0.5;entryDx=0;entryDy=0;" parent="F6fdnvKWjwfyb-HSmEis-1" source="F6fdnvKWjwfyb-HSmEis-82" target="F6fdnvKWjwfyb-HSmEis-83" edge="1">
          <mxGeometry width="50" height="50" relative="1" as="geometry">
            <mxPoint x="1143" y="1749" as="sourcePoint" />
            <mxPoint x="1193" y="1699" as="targetPoint" />
          </mxGeometry>
        </mxCell>
        <mxCell id="F6fdnvKWjwfyb-HSmEis-84" value="" style="endArrow=classic;html=1;rounded=0;exitX=1;exitY=0.5;exitDx=0;exitDy=0;entryX=0;entryY=0.5;entryDx=0;entryDy=0;" parent="F6fdnvKWjwfyb-HSmEis-1" source="F6fdnvKWjwfyb-HSmEis-76" target="F6fdnvKWjwfyb-HSmEis-82" edge="1">
          <mxGeometry width="50" height="50" relative="1" as="geometry">
            <mxPoint x="924" y="1805" as="sourcePoint" />
            <mxPoint x="974" y="1755" as="targetPoint" />
          </mxGeometry>
        </mxCell>
        <mxCell id="F6fdnvKWjwfyb-HSmEis-136" value="&lt;font style=&quot;font-size: 14px;&quot;&gt;Student&lt;/font&gt;" style="text;html=1;align=center;verticalAlign=middle;whiteSpace=wrap;rounded=0;" parent="F6fdnvKWjwfyb-HSmEis-1" vertex="1">
          <mxGeometry x="380" y="774" width="60" height="30" as="geometry" />
        </mxCell>
        <mxCell id="wtH1HohZmeT8aonh87yZ-46" value="" style="endArrow=classic;html=1;rounded=0;exitX=0;exitY=0.25;exitDx=0;exitDy=0;entryX=0.5;entryY=1;entryDx=0;entryDy=0;" edge="1" parent="F6fdnvKWjwfyb-HSmEis-1" source="F6fdnvKWjwfyb-HSmEis-83" target="F6fdnvKWjwfyb-HSmEis-44">
          <mxGeometry width="50" height="50" relative="1" as="geometry">
            <mxPoint x="555" y="1811" as="sourcePoint" />
            <mxPoint x="605" y="1761" as="targetPoint" />
            <Array as="points">
              <mxPoint x="336" y="1674" />
            </Array>
          </mxGeometry>
        </mxCell>
        <mxCell id="wtH1HohZmeT8aonh87yZ-48" value="" style="endArrow=classic;html=1;rounded=0;exitX=0;exitY=0;exitDx=0;exitDy=0;entryX=0;entryY=1;entryDx=0;entryDy=0;" edge="1" parent="F6fdnvKWjwfyb-HSmEis-1" source="F6fdnvKWjwfyb-HSmEis-95" target="F6fdnvKWjwfyb-HSmEis-44">
          <mxGeometry width="50" height="50" relative="1" as="geometry">
            <mxPoint x="336" y="1784" as="sourcePoint" />
            <mxPoint x="386" y="1734" as="targetPoint" />
            <Array as="points">
              <mxPoint x="225" y="1887" />
            </Array>
          </mxGeometry>
        </mxCell>
        <mxCell id="wtH1HohZmeT8aonh87yZ-49" value="" style="endArrow=classic;html=1;rounded=0;exitX=0.5;exitY=1;exitDx=0;exitDy=0;entryX=0;entryY=0.75;entryDx=0;entryDy=0;" edge="1" parent="F6fdnvKWjwfyb-HSmEis-1" source="F6fdnvKWjwfyb-HSmEis-106" target="F6fdnvKWjwfyb-HSmEis-44">
          <mxGeometry width="50" height="50" relative="1" as="geometry">
            <mxPoint x="306" y="2123" as="sourcePoint" />
            <mxPoint x="356" y="2073" as="targetPoint" />
            <Array as="points">
              <mxPoint x="276" y="2223" />
              <mxPoint x="54" y="1545" />
              <mxPoint x="33" y="1047" />
            </Array>
          </mxGeometry>
        </mxCell>
        <mxCell id="F6fdnvKWjwfyb-HSmEis-3" value="&lt;font style=&quot;font-size: 18px;&quot;&gt;Admin&lt;/font&gt;" style="swimlane;whiteSpace=wrap;html=1;startSize=23;" parent="1" vertex="1">
          <mxGeometry x="1740" y="240" width="510" height="2301" as="geometry" />
        </mxCell>
        <mxCell id="F6fdnvKWjwfyb-HSmEis-124" value="&lt;font style=&quot;font-size: 16px;&quot;&gt;Access&lt;/font&gt;&lt;div&gt;&lt;font style=&quot;font-size: 16px;&quot;&gt;Dashboard&lt;/font&gt;&lt;/div&gt;" style="rounded=1;whiteSpace=wrap;html=1;" parent="F6fdnvKWjwfyb-HSmEis-3" vertex="1">
          <mxGeometry x="195" y="75" width="120" height="60" as="geometry" />
        </mxCell>
        <mxCell id="F6fdnvKWjwfyb-HSmEis-157" value="&lt;span style=&quot;font-size: 16px;&quot;&gt;Moderate&lt;/span&gt;&lt;br&gt;&lt;div&gt;&lt;span style=&quot;font-size: 16px;&quot;&gt;Users&lt;/span&gt;&lt;/div&gt;" style="rounded=1;whiteSpace=wrap;html=1;" parent="F6fdnvKWjwfyb-HSmEis-3" vertex="1">
          <mxGeometry x="20" y="195" width="120" height="60" as="geometry" />
        </mxCell>
        <mxCell id="F6fdnvKWjwfyb-HSmEis-163" value="&lt;span style=&quot;font-size: 16px;&quot;&gt;Moderate&lt;/span&gt;&lt;br&gt;&lt;div&gt;&lt;span style=&quot;font-size: 16px;&quot;&gt;Content&lt;/span&gt;&lt;/div&gt;" style="rounded=1;whiteSpace=wrap;html=1;" parent="F6fdnvKWjwfyb-HSmEis-3" vertex="1">
          <mxGeometry x="332.5" y="195" width="120" height="60" as="geometry" />
        </mxCell>
        <mxCell id="F6fdnvKWjwfyb-HSmEis-164" value="Suspicious" style="rhombus;fontSize=16;" parent="F6fdnvKWjwfyb-HSmEis-3" vertex="1">
          <mxGeometry x="32.5" y="290" width="95" height="95" as="geometry" />
        </mxCell>
        <mxCell id="F6fdnvKWjwfyb-HSmEis-165" value="&lt;span style=&quot;font-size: 16px;&quot;&gt;Ban&lt;/span&gt;&lt;div&gt;&lt;span style=&quot;font-size: 16px;&quot;&gt;User&lt;/span&gt;&lt;/div&gt;" style="rounded=1;whiteSpace=wrap;html=1;" parent="F6fdnvKWjwfyb-HSmEis-3" vertex="1">
          <mxGeometry x="20" y="425" width="120" height="60" as="geometry" />
        </mxCell>
        <mxCell id="F6fdnvKWjwfyb-HSmEis-166" value="&lt;span style=&quot;font-size: 16px;&quot;&gt;Approve&lt;/span&gt;&lt;br&gt;&lt;div&gt;&lt;span style=&quot;font-size: 16px;&quot;&gt;User&lt;/span&gt;&lt;/div&gt;" style="rounded=1;whiteSpace=wrap;html=1;" parent="F6fdnvKWjwfyb-HSmEis-3" vertex="1">
          <mxGeometry x="155" y="307.5" width="120" height="60" as="geometry" />
        </mxCell>
        <mxCell id="F6fdnvKWjwfyb-HSmEis-167" value="Valid" style="rhombus;fontSize=16;" parent="F6fdnvKWjwfyb-HSmEis-3" vertex="1">
          <mxGeometry x="345" y="285" width="95" height="95" as="geometry" />
        </mxCell>
        <mxCell id="F6fdnvKWjwfyb-HSmEis-168" value="&lt;span style=&quot;font-size: 16px;&quot;&gt;Ban&lt;/span&gt;&lt;div&gt;&lt;span style=&quot;font-size: 16px;&quot;&gt;Content&lt;/span&gt;&lt;/div&gt;" style="rounded=1;whiteSpace=wrap;html=1;" parent="F6fdnvKWjwfyb-HSmEis-3" vertex="1">
          <mxGeometry x="245" y="425" width="120" height="60" as="geometry" />
        </mxCell>
        <mxCell id="F6fdnvKWjwfyb-HSmEis-169" value="&lt;span style=&quot;font-size: 16px;&quot;&gt;Approve&lt;/span&gt;&lt;br&gt;&lt;div&gt;&lt;span style=&quot;font-size: 16px;&quot;&gt;Content&lt;/span&gt;&lt;/div&gt;" style="rounded=1;whiteSpace=wrap;html=1;" parent="F6fdnvKWjwfyb-HSmEis-3" vertex="1">
          <mxGeometry x="385" y="425" width="120" height="60" as="geometry" />
        </mxCell>
        <mxCell id="F6fdnvKWjwfyb-HSmEis-170" value="&lt;span style=&quot;font-size: 16px;&quot;&gt;Warn&lt;/span&gt;&lt;div&gt;&lt;span style=&quot;font-size: 16px;&quot;&gt;User&lt;/span&gt;&lt;/div&gt;" style="rounded=1;whiteSpace=wrap;html=1;" parent="F6fdnvKWjwfyb-HSmEis-3" vertex="1">
          <mxGeometry x="245" y="535" width="120" height="60" as="geometry" />
        </mxCell>
        <mxCell id="F6fdnvKWjwfyb-HSmEis-171" value="" style="endArrow=classic;html=1;rounded=0;exitX=0;exitY=0.5;exitDx=0;exitDy=0;entryX=0.5;entryY=0;entryDx=0;entryDy=0;" parent="F6fdnvKWjwfyb-HSmEis-3" source="F6fdnvKWjwfyb-HSmEis-124" target="F6fdnvKWjwfyb-HSmEis-157" edge="1">
          <mxGeometry width="50" height="50" relative="1" as="geometry">
            <mxPoint x="180" y="230" as="sourcePoint" />
            <mxPoint x="230" y="180" as="targetPoint" />
            <Array as="points">
              <mxPoint x="80" y="105" />
            </Array>
          </mxGeometry>
        </mxCell>
        <mxCell id="F6fdnvKWjwfyb-HSmEis-172" value="" style="endArrow=classic;html=1;rounded=0;exitX=1;exitY=0.5;exitDx=0;exitDy=0;entryX=0.5;entryY=0;entryDx=0;entryDy=0;" parent="F6fdnvKWjwfyb-HSmEis-3" source="F6fdnvKWjwfyb-HSmEis-124" target="F6fdnvKWjwfyb-HSmEis-163" edge="1">
          <mxGeometry width="50" height="50" relative="1" as="geometry">
            <mxPoint x="365" y="170" as="sourcePoint" />
            <mxPoint x="415" y="120" as="targetPoint" />
            <Array as="points">
              <mxPoint x="393" y="105" />
            </Array>
          </mxGeometry>
        </mxCell>
        <mxCell id="F6fdnvKWjwfyb-HSmEis-173" value="" style="endArrow=classic;html=1;rounded=0;exitX=0.5;exitY=1;exitDx=0;exitDy=0;entryX=0.5;entryY=0;entryDx=0;entryDy=0;" parent="F6fdnvKWjwfyb-HSmEis-3" source="F6fdnvKWjwfyb-HSmEis-157" target="F6fdnvKWjwfyb-HSmEis-164" edge="1">
          <mxGeometry width="50" height="50" relative="1" as="geometry">
            <mxPoint x="180" y="210" as="sourcePoint" />
            <mxPoint x="230" y="160" as="targetPoint" />
          </mxGeometry>
        </mxCell>
        <mxCell id="F6fdnvKWjwfyb-HSmEis-174" value="" style="endArrow=classic;html=1;rounded=0;exitX=0.5;exitY=1;exitDx=0;exitDy=0;entryX=0.5;entryY=0;entryDx=0;entryDy=0;" parent="F6fdnvKWjwfyb-HSmEis-3" source="F6fdnvKWjwfyb-HSmEis-164" target="F6fdnvKWjwfyb-HSmEis-165" edge="1">
          <mxGeometry width="50" height="50" relative="1" as="geometry">
            <mxPoint x="115" y="415" as="sourcePoint" />
            <mxPoint x="165" y="365" as="targetPoint" />
          </mxGeometry>
        </mxCell>
        <mxCell id="F6fdnvKWjwfyb-HSmEis-175" value="" style="endArrow=classic;html=1;rounded=0;exitX=1;exitY=0.5;exitDx=0;exitDy=0;entryX=0;entryY=0.5;entryDx=0;entryDy=0;" parent="F6fdnvKWjwfyb-HSmEis-3" source="F6fdnvKWjwfyb-HSmEis-164" target="F6fdnvKWjwfyb-HSmEis-166" edge="1">
          <mxGeometry width="50" height="50" relative="1" as="geometry">
            <mxPoint x="155" y="430" as="sourcePoint" />
            <mxPoint x="205" y="380" as="targetPoint" />
          </mxGeometry>
        </mxCell>
        <mxCell id="F6fdnvKWjwfyb-HSmEis-176" value="" style="endArrow=classic;html=1;rounded=0;exitX=0.5;exitY=1;exitDx=0;exitDy=0;entryX=0.5;entryY=0;entryDx=0;entryDy=0;" parent="F6fdnvKWjwfyb-HSmEis-3" source="F6fdnvKWjwfyb-HSmEis-163" target="F6fdnvKWjwfyb-HSmEis-167" edge="1">
          <mxGeometry width="50" height="50" relative="1" as="geometry">
            <mxPoint x="305" y="330" as="sourcePoint" />
            <mxPoint x="355" y="280" as="targetPoint" />
          </mxGeometry>
        </mxCell>
        <mxCell id="F6fdnvKWjwfyb-HSmEis-177" value="" style="endArrow=classic;html=1;rounded=0;exitX=1;exitY=0.5;exitDx=0;exitDy=0;entryX=0.75;entryY=0;entryDx=0;entryDy=0;" parent="F6fdnvKWjwfyb-HSmEis-3" source="F6fdnvKWjwfyb-HSmEis-167" target="F6fdnvKWjwfyb-HSmEis-169" edge="1">
          <mxGeometry width="50" height="50" relative="1" as="geometry">
            <mxPoint x="465" y="360" as="sourcePoint" />
            <mxPoint x="515" y="310" as="targetPoint" />
            <Array as="points">
              <mxPoint x="475" y="333" />
            </Array>
          </mxGeometry>
        </mxCell>
        <mxCell id="F6fdnvKWjwfyb-HSmEis-178" value="" style="endArrow=classic;html=1;rounded=0;entryX=0.5;entryY=0;entryDx=0;entryDy=0;exitX=0;exitY=0.5;exitDx=0;exitDy=0;" parent="F6fdnvKWjwfyb-HSmEis-3" source="F6fdnvKWjwfyb-HSmEis-167" target="F6fdnvKWjwfyb-HSmEis-168" edge="1">
          <mxGeometry width="50" height="50" relative="1" as="geometry">
            <mxPoint x="270" y="415" as="sourcePoint" />
            <mxPoint x="320" y="365" as="targetPoint" />
            <Array as="points">
              <mxPoint x="305" y="333" />
              <mxPoint x="305" y="395" />
            </Array>
          </mxGeometry>
        </mxCell>
        <mxCell id="F6fdnvKWjwfyb-HSmEis-179" value="" style="endArrow=classic;html=1;rounded=0;exitX=0.5;exitY=1;exitDx=0;exitDy=0;entryX=0.5;entryY=0;entryDx=0;entryDy=0;" parent="F6fdnvKWjwfyb-HSmEis-3" source="F6fdnvKWjwfyb-HSmEis-168" target="F6fdnvKWjwfyb-HSmEis-170" edge="1">
          <mxGeometry width="50" height="50" relative="1" as="geometry">
            <mxPoint x="345" y="510" as="sourcePoint" />
            <mxPoint x="395" y="460" as="targetPoint" />
          </mxGeometry>
        </mxCell>
        <mxCell id="F6fdnvKWjwfyb-HSmEis-182" value="&lt;font style=&quot;font-size: 14px;&quot;&gt;Yes&lt;/font&gt;" style="text;html=1;align=center;verticalAlign=middle;whiteSpace=wrap;rounded=0;" parent="F6fdnvKWjwfyb-HSmEis-3" vertex="1">
          <mxGeometry x="80" y="385" width="60" height="30" as="geometry" />
        </mxCell>
        <mxCell id="F6fdnvKWjwfyb-HSmEis-183" value="&lt;font style=&quot;font-size: 14px;&quot;&gt;Yes&lt;/font&gt;" style="text;html=1;align=center;verticalAlign=middle;whiteSpace=wrap;rounded=0;" parent="F6fdnvKWjwfyb-HSmEis-3" vertex="1">
          <mxGeometry x="435" y="290" width="60" height="30" as="geometry" />
        </mxCell>
        <mxCell id="F6fdnvKWjwfyb-HSmEis-184" value="&lt;font style=&quot;font-size: 14px;&quot;&gt;No&lt;/font&gt;" style="text;html=1;align=center;verticalAlign=middle;whiteSpace=wrap;rounded=0;" parent="F6fdnvKWjwfyb-HSmEis-3" vertex="1">
          <mxGeometry x="305" y="300" width="60" height="30" as="geometry" />
        </mxCell>
        <mxCell id="F6fdnvKWjwfyb-HSmEis-185" value="&lt;font style=&quot;font-size: 14px;&quot;&gt;No&lt;/font&gt;" style="text;html=1;align=center;verticalAlign=middle;whiteSpace=wrap;rounded=0;" parent="F6fdnvKWjwfyb-HSmEis-3" vertex="1">
          <mxGeometry x="105" y="290" width="60" height="30" as="geometry" />
        </mxCell>
        <mxCell id="F6fdnvKWjwfyb-HSmEis-5" value="&lt;b&gt;&lt;font style=&quot;font-size: 24px;&quot;&gt;AIUB Lifeline Activity Diagram&lt;/font&gt;&lt;/b&gt;" style="rounded=0;whiteSpace=wrap;html=1;" parent="1" vertex="1">
          <mxGeometry x="393" y="210" width="1857" height="30" as="geometry" />
        </mxCell>
        <mxCell id="F6fdnvKWjwfyb-HSmEis-22" value="" style="endArrow=classic;html=1;rounded=0;exitX=0.5;exitY=0;exitDx=0;exitDy=0;entryX=0;entryY=0.5;entryDx=0;entryDy=0;" parent="1" source="F6fdnvKWjwfyb-HSmEis-18" target="F6fdnvKWjwfyb-HSmEis-21" edge="1">
          <mxGeometry width="50" height="50" relative="1" as="geometry">
            <mxPoint x="1175" y="450" as="sourcePoint" />
            <mxPoint x="1225" y="400" as="targetPoint" />
            <Array as="points">
              <mxPoint x="1143" y="360" />
            </Array>
          </mxGeometry>
        </mxCell>
        <mxCell id="F6fdnvKWjwfyb-HSmEis-26" value="" style="endArrow=classic;html=1;rounded=0;exitX=0;exitY=0.5;exitDx=0;exitDy=0;entryX=1;entryY=0.5;entryDx=0;entryDy=0;" parent="1" source="F6fdnvKWjwfyb-HSmEis-23" target="F6fdnvKWjwfyb-HSmEis-18" edge="1">
          <mxGeometry width="50" height="50" relative="1" as="geometry">
            <mxPoint x="1345" y="620" as="sourcePoint" />
            <mxPoint x="1395" y="570" as="targetPoint" />
          </mxGeometry>
        </mxCell>
        <mxCell id="F6fdnvKWjwfyb-HSmEis-27" value="" style="endArrow=classic;html=1;rounded=0;exitX=0.5;exitY=1;exitDx=0;exitDy=0;entryX=1;entryY=0;entryDx=0;entryDy=0;" parent="1" source="F6fdnvKWjwfyb-HSmEis-23" target="F6fdnvKWjwfyb-HSmEis-12" edge="1">
          <mxGeometry width="50" height="50" relative="1" as="geometry">
            <mxPoint x="1365" y="610" as="sourcePoint" />
            <mxPoint x="1415" y="560" as="targetPoint" />
            <Array as="points">
              <mxPoint x="1455" y="600" />
              <mxPoint x="925" y="600" />
            </Array>
          </mxGeometry>
        </mxCell>
        <mxCell id="F6fdnvKWjwfyb-HSmEis-33" value="" style="endArrow=classic;html=1;rounded=0;exitX=1;exitY=0.5;exitDx=0;exitDy=0;entryX=0;entryY=0.5;entryDx=0;entryDy=0;" parent="1" source="F6fdnvKWjwfyb-HSmEis-17" target="F6fdnvKWjwfyb-HSmEis-32" edge="1">
          <mxGeometry width="50" height="50" relative="1" as="geometry">
            <mxPoint x="1185" y="690" as="sourcePoint" />
            <mxPoint x="1235" y="640" as="targetPoint" />
          </mxGeometry>
        </mxCell>
        <mxCell id="F6fdnvKWjwfyb-HSmEis-39" value="" style="endArrow=classic;html=1;rounded=0;entryX=0.5;entryY=1;entryDx=0;entryDy=0;exitX=0;exitY=0.5;exitDx=0;exitDy=0;" parent="1" source="F6fdnvKWjwfyb-HSmEis-36" target="F6fdnvKWjwfyb-HSmEis-12" edge="1">
          <mxGeometry width="50" height="50" relative="1" as="geometry">
            <mxPoint x="1095" y="850" as="sourcePoint" />
            <mxPoint x="1145" y="800" as="targetPoint" />
            <Array as="points">
              <mxPoint x="813" y="792" />
            </Array>
          </mxGeometry>
        </mxCell>
        <mxCell id="F6fdnvKWjwfyb-HSmEis-4" value="&lt;font style=&quot;font-size: 18px;&quot;&gt;System&lt;/font&gt;" style="swimlane;whiteSpace=wrap;html=1;startSize=23;" parent="1" vertex="1">
          <mxGeometry x="1287" y="240" width="453" height="2301" as="geometry" />
        </mxCell>
        <mxCell id="F6fdnvKWjwfyb-HSmEis-21" value="&lt;font style=&quot;font-size: 16px;&quot;&gt;Check Information&lt;/font&gt;" style="rounded=1;whiteSpace=wrap;html=1;" parent="F6fdnvKWjwfyb-HSmEis-4" vertex="1">
          <mxGeometry x="110" y="90" width="120" height="60" as="geometry" />
        </mxCell>
        <mxCell id="F6fdnvKWjwfyb-HSmEis-23" value="Verify &#xa;Information" style="rhombus;fontSize=16;" parent="F6fdnvKWjwfyb-HSmEis-4" vertex="1">
          <mxGeometry x="112.5" y="200" width="115" height="115" as="geometry" />
        </mxCell>
        <mxCell id="F6fdnvKWjwfyb-HSmEis-24" value="" style="endArrow=classic;html=1;rounded=0;exitX=0.5;exitY=1;exitDx=0;exitDy=0;entryX=0.5;entryY=0;entryDx=0;entryDy=0;" parent="F6fdnvKWjwfyb-HSmEis-4" source="F6fdnvKWjwfyb-HSmEis-21" target="F6fdnvKWjwfyb-HSmEis-23" edge="1">
          <mxGeometry width="50" height="50" relative="1" as="geometry">
            <mxPoint x="240" y="240" as="sourcePoint" />
            <mxPoint x="290" y="190" as="targetPoint" />
          </mxGeometry>
        </mxCell>
        <mxCell id="F6fdnvKWjwfyb-HSmEis-30" value="&lt;font style=&quot;font-size: 14px;&quot;&gt;No&lt;/font&gt;" style="text;html=1;align=center;verticalAlign=middle;whiteSpace=wrap;rounded=0;" parent="F6fdnvKWjwfyb-HSmEis-4" vertex="1">
          <mxGeometry x="65" y="230" width="60" height="30" as="geometry" />
        </mxCell>
        <mxCell id="F6fdnvKWjwfyb-HSmEis-31" value="&lt;font style=&quot;font-size: 14px;&quot;&gt;Yes&lt;/font&gt;" style="text;html=1;align=center;verticalAlign=middle;whiteSpace=wrap;rounded=0;" parent="F6fdnvKWjwfyb-HSmEis-4" vertex="1">
          <mxGeometry x="180" y="315" width="60" height="30" as="geometry" />
        </mxCell>
        <mxCell id="F6fdnvKWjwfyb-HSmEis-32" value="&lt;font style=&quot;font-size: 16px;&quot;&gt;Validate Credentials&lt;/font&gt;" style="rounded=1;whiteSpace=wrap;html=1;" parent="F6fdnvKWjwfyb-HSmEis-4" vertex="1">
          <mxGeometry x="192" y="420" width="120" height="60" as="geometry" />
        </mxCell>
        <mxCell id="F6fdnvKWjwfyb-HSmEis-34" value="Valid" style="rhombus;fontSize=16;" parent="F6fdnvKWjwfyb-HSmEis-4" vertex="1">
          <mxGeometry x="204.5" y="504" width="95" height="95" as="geometry" />
        </mxCell>
        <mxCell id="F6fdnvKWjwfyb-HSmEis-35" value="" style="endArrow=classic;html=1;rounded=0;exitX=0.5;exitY=1;exitDx=0;exitDy=0;entryX=0.5;entryY=0;entryDx=0;entryDy=0;" parent="F6fdnvKWjwfyb-HSmEis-4" source="F6fdnvKWjwfyb-HSmEis-32" target="F6fdnvKWjwfyb-HSmEis-34" edge="1">
          <mxGeometry width="50" height="50" relative="1" as="geometry">
            <mxPoint x="60" y="560" as="sourcePoint" />
            <mxPoint x="110" y="510" as="targetPoint" />
          </mxGeometry>
        </mxCell>
        <mxCell id="F6fdnvKWjwfyb-HSmEis-36" value="&lt;font style=&quot;font-size: 16px;&quot;&gt;Show Invalid&lt;/font&gt;" style="rounded=1;whiteSpace=wrap;html=1;" parent="F6fdnvKWjwfyb-HSmEis-4" vertex="1">
          <mxGeometry x="27.5" y="521.5" width="97.5" height="60" as="geometry" />
        </mxCell>
        <mxCell id="F6fdnvKWjwfyb-HSmEis-37" value="" style="endArrow=classic;html=1;rounded=0;exitX=0;exitY=0.5;exitDx=0;exitDy=0;entryX=1;entryY=0.5;entryDx=0;entryDy=0;" parent="F6fdnvKWjwfyb-HSmEis-4" source="F6fdnvKWjwfyb-HSmEis-34" target="F6fdnvKWjwfyb-HSmEis-36" edge="1">
          <mxGeometry width="50" height="50" relative="1" as="geometry">
            <mxPoint x="150" y="690" as="sourcePoint" />
            <mxPoint x="200" y="640" as="targetPoint" />
          </mxGeometry>
        </mxCell>
        <mxCell id="F6fdnvKWjwfyb-HSmEis-38" value="&lt;font style=&quot;font-size: 14px;&quot;&gt;No&lt;/font&gt;" style="text;html=1;align=center;verticalAlign=middle;whiteSpace=wrap;rounded=0;" parent="F6fdnvKWjwfyb-HSmEis-4" vertex="1">
          <mxGeometry x="159" y="513" width="60" height="30" as="geometry" />
        </mxCell>
        <mxCell id="F6fdnvKWjwfyb-HSmEis-43" value="&lt;font style=&quot;font-size: 14px;&quot;&gt;Yes&lt;/font&gt;" style="text;html=1;align=center;verticalAlign=middle;whiteSpace=wrap;rounded=0;" parent="F6fdnvKWjwfyb-HSmEis-4" vertex="1">
          <mxGeometry x="258" y="588" width="60" height="30" as="geometry" />
        </mxCell>
        <mxCell id="F6fdnvKWjwfyb-HSmEis-128" value="" style="endArrow=classic;html=1;rounded=0;exitX=0.5;exitY=0;exitDx=0;exitDy=0;entryX=0;entryY=0.5;entryDx=0;entryDy=0;" parent="F6fdnvKWjwfyb-HSmEis-4" source="F6fdnvKWjwfyb-HSmEis-125" target="F6fdnvKWjwfyb-HSmEis-59" edge="1">
          <mxGeometry width="50" height="50" relative="1" as="geometry">
            <mxPoint x="-540" y="720" as="sourcePoint" />
            <mxPoint x="-490" y="670" as="targetPoint" />
            <Array as="points">
              <mxPoint x="-540" y="705" />
            </Array>
          </mxGeometry>
        </mxCell>
        <mxCell id="F6fdnvKWjwfyb-HSmEis-55" value="" style="endArrow=classic;html=1;rounded=0;exitX=1;exitY=0.5;exitDx=0;exitDy=0;entryX=0;entryY=0.5;entryDx=0;entryDy=0;" parent="F6fdnvKWjwfyb-HSmEis-4" source="F6fdnvKWjwfyb-HSmEis-51" target="F6fdnvKWjwfyb-HSmEis-54" edge="1">
          <mxGeometry width="50" height="50" relative="1" as="geometry">
            <mxPoint x="194" y="823" as="sourcePoint" />
            <mxPoint x="244" y="773" as="targetPoint" />
          </mxGeometry>
        </mxCell>
        <mxCell id="F6fdnvKWjwfyb-HSmEis-52" value="" style="endArrow=classic;html=1;rounded=0;exitX=1;exitY=0.5;exitDx=0;exitDy=0;entryX=0;entryY=0.5;entryDx=0;entryDy=0;" parent="F6fdnvKWjwfyb-HSmEis-4" source="F6fdnvKWjwfyb-HSmEis-48" target="F6fdnvKWjwfyb-HSmEis-51" edge="1">
          <mxGeometry width="50" height="50" relative="1" as="geometry">
            <mxPoint x="-310" y="718" as="sourcePoint" />
            <mxPoint x="-260" y="668" as="targetPoint" />
          </mxGeometry>
        </mxCell>
        <mxCell id="F6fdnvKWjwfyb-HSmEis-60" value="" style="endArrow=classic;html=1;rounded=0;exitX=1;exitY=0.5;exitDx=0;exitDy=0;entryX=0;entryY=0.5;entryDx=0;entryDy=0;" parent="F6fdnvKWjwfyb-HSmEis-4" source="F6fdnvKWjwfyb-HSmEis-59" target="F6fdnvKWjwfyb-HSmEis-48" edge="1">
          <mxGeometry width="50" height="50" relative="1" as="geometry">
            <mxPoint x="-261" y="909" as="sourcePoint" />
            <mxPoint x="-211" y="859" as="targetPoint" />
          </mxGeometry>
        </mxCell>
        <mxCell id="F6fdnvKWjwfyb-HSmEis-59" value="&lt;div&gt;&lt;span style=&quot;font-size: 16px;&quot;&gt;Faculty&lt;/span&gt;&lt;/div&gt;&lt;span style=&quot;font-size: 16px;&quot;&gt;TSF Page&lt;/span&gt;" style="rounded=1;whiteSpace=wrap;html=1;" parent="F6fdnvKWjwfyb-HSmEis-4" vertex="1">
          <mxGeometry x="-460" y="675" width="120" height="60" as="geometry" />
        </mxCell>
        <mxCell id="F6fdnvKWjwfyb-HSmEis-125" value="User &#xa;Type" style="rhombus;fontSize=16;" parent="F6fdnvKWjwfyb-HSmEis-4" vertex="1">
          <mxGeometry x="-580" y="725" width="80" height="80" as="geometry" />
        </mxCell>
        <mxCell id="F6fdnvKWjwfyb-HSmEis-135" value="&lt;font style=&quot;font-size: 14px;&quot;&gt;Faculty&lt;/font&gt;" style="text;html=1;align=center;verticalAlign=middle;whiteSpace=wrap;rounded=0;" parent="F6fdnvKWjwfyb-HSmEis-4" vertex="1">
          <mxGeometry x="-547.5" y="675" width="60" height="30" as="geometry" />
        </mxCell>
        <mxCell id="F6fdnvKWjwfyb-HSmEis-48" value="&lt;font style=&quot;font-size: 16px;&quot;&gt;Upload&lt;/font&gt;&lt;div&gt;&lt;font style=&quot;font-size: 16px;&quot;&gt;TSF&lt;/font&gt;&lt;/div&gt;" style="rounded=1;whiteSpace=wrap;html=1;" parent="F6fdnvKWjwfyb-HSmEis-4" vertex="1">
          <mxGeometry x="-247" y="675" width="120" height="60" as="geometry" />
        </mxCell>
        <mxCell id="F6fdnvKWjwfyb-HSmEis-51" value="&lt;span style=&quot;font-size: 16px;&quot;&gt;Verify&lt;/span&gt;&lt;br&gt;&lt;div&gt;&lt;font style=&quot;font-size: 16px;&quot;&gt;TSF&lt;/font&gt;&lt;/div&gt;" style="rounded=1;whiteSpace=wrap;html=1;" parent="F6fdnvKWjwfyb-HSmEis-4" vertex="1">
          <mxGeometry x="30" y="675" width="120" height="60" as="geometry" />
        </mxCell>
        <mxCell id="F6fdnvKWjwfyb-HSmEis-54" value="&lt;span style=&quot;font-size: 16px;&quot;&gt;Save to&lt;/span&gt;&lt;div&gt;&lt;span style=&quot;font-size: 16px;&quot;&gt;Database&lt;/span&gt;&lt;/div&gt;" style="rounded=1;whiteSpace=wrap;html=1;" parent="F6fdnvKWjwfyb-HSmEis-4" vertex="1">
          <mxGeometry x="265" y="675" width="120" height="60" as="geometry" />
        </mxCell>
        <mxCell id="wtH1HohZmeT8aonh87yZ-5" value="&lt;span style=&quot;font-size: 16px;&quot;&gt;Search Database&lt;/span&gt;" style="rounded=1;whiteSpace=wrap;html=1;" vertex="1" parent="F6fdnvKWjwfyb-HSmEis-4">
          <mxGeometry x="20" y="815" width="120" height="60" as="geometry" />
        </mxCell>
        <mxCell id="wtH1HohZmeT8aonh87yZ-6" value="Found &#xa;item" style="rhombus;fontSize=16;" vertex="1" parent="F6fdnvKWjwfyb-HSmEis-4">
          <mxGeometry x="175" y="797.5" width="95" height="95" as="geometry" />
        </mxCell>
        <mxCell id="wtH1HohZmeT8aonh87yZ-7" value="&lt;span style=&quot;font-size: 16px;&quot;&gt;Show not&amp;nbsp;&lt;/span&gt;&lt;div&gt;&lt;span style=&quot;font-size: 16px;&quot;&gt;found&lt;/span&gt;&lt;/div&gt;" style="rounded=1;whiteSpace=wrap;html=1;" vertex="1" parent="F6fdnvKWjwfyb-HSmEis-4">
          <mxGeometry x="25" y="880" width="120" height="60" as="geometry" />
        </mxCell>
        <mxCell id="wtH1HohZmeT8aonh87yZ-8" value="&lt;span style=&quot;font-size: 16px;&quot;&gt;Show Notes&lt;/span&gt;&lt;div&gt;&lt;span style=&quot;font-size: 16px;&quot;&gt;List&lt;/span&gt;&lt;/div&gt;" style="rounded=1;whiteSpace=wrap;html=1;" vertex="1" parent="F6fdnvKWjwfyb-HSmEis-4">
          <mxGeometry x="40" y="1295" width="120" height="60" as="geometry" />
        </mxCell>
        <mxCell id="wtH1HohZmeT8aonh87yZ-11" value="&lt;span style=&quot;font-size: 16px;&quot;&gt;Show Faculty&lt;/span&gt;&lt;div&gt;&lt;span style=&quot;font-size: 16px;&quot;&gt;List&lt;/span&gt;&lt;/div&gt;" style="rounded=1;whiteSpace=wrap;html=1;" vertex="1" parent="F6fdnvKWjwfyb-HSmEis-4">
          <mxGeometry x="25" y="750" width="120" height="60" as="geometry" />
        </mxCell>
        <mxCell id="wtH1HohZmeT8aonh87yZ-15" value="" style="endArrow=classic;html=1;rounded=0;entryX=0;entryY=0.5;entryDx=0;entryDy=0;exitX=1;exitY=0.5;exitDx=0;exitDy=0;" edge="1" parent="F6fdnvKWjwfyb-HSmEis-4" source="wtH1HohZmeT8aonh87yZ-5" target="wtH1HohZmeT8aonh87yZ-6">
          <mxGeometry width="50" height="50" relative="1" as="geometry">
            <mxPoint x="115" y="950" as="sourcePoint" />
            <mxPoint x="165" y="900" as="targetPoint" />
          </mxGeometry>
        </mxCell>
        <mxCell id="wtH1HohZmeT8aonh87yZ-17" value="" style="endArrow=classic;html=1;rounded=0;entryX=1;entryY=0.5;entryDx=0;entryDy=0;exitX=0.5;exitY=0;exitDx=0;exitDy=0;" edge="1" parent="F6fdnvKWjwfyb-HSmEis-4" source="wtH1HohZmeT8aonh87yZ-6" target="wtH1HohZmeT8aonh87yZ-11">
          <mxGeometry width="50" height="50" relative="1" as="geometry">
            <mxPoint x="140" y="960" as="sourcePoint" />
            <mxPoint x="190" y="910" as="targetPoint" />
            <Array as="points">
              <mxPoint x="223" y="780" />
            </Array>
          </mxGeometry>
        </mxCell>
        <mxCell id="wtH1HohZmeT8aonh87yZ-18" value="" style="endArrow=classic;html=1;rounded=0;entryX=1;entryY=0.5;entryDx=0;entryDy=0;exitX=0.5;exitY=1;exitDx=0;exitDy=0;" edge="1" parent="F6fdnvKWjwfyb-HSmEis-4" source="wtH1HohZmeT8aonh87yZ-6" target="wtH1HohZmeT8aonh87yZ-7">
          <mxGeometry width="50" height="50" relative="1" as="geometry">
            <mxPoint x="145" y="955" as="sourcePoint" />
            <mxPoint x="195" y="905" as="targetPoint" />
            <Array as="points">
              <mxPoint x="223" y="910" />
            </Array>
          </mxGeometry>
        </mxCell>
        <mxCell id="wtH1HohZmeT8aonh87yZ-20" value="&lt;font style=&quot;font-size: 14px;&quot;&gt;Yes&lt;/font&gt;" style="text;html=1;align=center;verticalAlign=middle;whiteSpace=wrap;rounded=0;" vertex="1" parent="F6fdnvKWjwfyb-HSmEis-4">
          <mxGeometry x="227.5" y="775" width="60" height="30" as="geometry" />
        </mxCell>
        <mxCell id="wtH1HohZmeT8aonh87yZ-21" value="&lt;font style=&quot;font-size: 14px;&quot;&gt;No&lt;/font&gt;" style="text;html=1;align=center;verticalAlign=middle;whiteSpace=wrap;rounded=0;" vertex="1" parent="F6fdnvKWjwfyb-HSmEis-4">
          <mxGeometry x="230" y="892.5" width="60" height="30" as="geometry" />
        </mxCell>
        <mxCell id="wtH1HohZmeT8aonh87yZ-32" value="&lt;span style=&quot;font-size: 16px;&quot;&gt;Show not&amp;nbsp;&lt;/span&gt;&lt;div&gt;&lt;span style=&quot;font-size: 16px;&quot;&gt;found&lt;/span&gt;&lt;/div&gt;" style="rounded=1;whiteSpace=wrap;html=1;" vertex="1" parent="F6fdnvKWjwfyb-HSmEis-4">
          <mxGeometry x="40" y="1716" width="120" height="60" as="geometry" />
        </mxCell>
        <mxCell id="wtH1HohZmeT8aonh87yZ-33" value="&lt;span style=&quot;font-size: 16px;&quot;&gt;Show Item&lt;/span&gt;&lt;div&gt;&lt;span style=&quot;font-size: 16px;&quot;&gt;List&lt;/span&gt;&lt;/div&gt;" style="rounded=1;whiteSpace=wrap;html=1;" vertex="1" parent="F6fdnvKWjwfyb-HSmEis-4">
          <mxGeometry x="47" y="1551" width="120" height="60" as="geometry" />
        </mxCell>
        <mxCell id="wtH1HohZmeT8aonh87yZ-40" value="&lt;span style=&quot;font-size: 16px;&quot;&gt;Show&amp;nbsp;&lt;/span&gt;&lt;div&gt;&lt;span style=&quot;font-size: 16px;&quot;&gt;Question&lt;br&gt;&lt;/span&gt;&lt;div&gt;&lt;span style=&quot;font-size: 16px;&quot;&gt;List&lt;/span&gt;&lt;/div&gt;&lt;/div&gt;" style="rounded=1;whiteSpace=wrap;html=1;" vertex="1" parent="F6fdnvKWjwfyb-HSmEis-4">
          <mxGeometry x="25" y="1956" width="120" height="60" as="geometry" />
        </mxCell>
        <mxCell id="wtH1HohZmeT8aonh87yZ-41" value="&lt;span style=&quot;font-size: 16px;&quot;&gt;Show not&amp;nbsp;&lt;/span&gt;&lt;div&gt;&lt;span style=&quot;font-size: 16px;&quot;&gt;found&lt;/span&gt;&lt;/div&gt;" style="rounded=1;whiteSpace=wrap;html=1;" vertex="1" parent="F6fdnvKWjwfyb-HSmEis-4">
          <mxGeometry x="35" y="2103" width="120" height="60" as="geometry" />
        </mxCell>
        <mxCell id="F6fdnvKWjwfyb-HSmEis-116" value="&lt;span style=&quot;font-size: 16px;&quot;&gt;Save to&lt;/span&gt;&lt;div&gt;&lt;span style=&quot;font-size: 16px;&quot;&gt;Database&lt;/span&gt;&lt;/div&gt;" style="rounded=1;whiteSpace=wrap;html=1;" parent="F6fdnvKWjwfyb-HSmEis-4" vertex="1">
          <mxGeometry x="210" y="1905" width="120" height="60" as="geometry" />
        </mxCell>
        <mxCell id="F6fdnvKWjwfyb-HSmEis-108" value="&lt;span style=&quot;font-size: 16px;&quot;&gt;Search Database&lt;/span&gt;" style="rounded=1;whiteSpace=wrap;html=1;" parent="F6fdnvKWjwfyb-HSmEis-4" vertex="1">
          <mxGeometry x="30" y="2037" width="120" height="60" as="geometry" />
        </mxCell>
        <mxCell id="F6fdnvKWjwfyb-HSmEis-109" value="Found &#xa;topic" style="rhombus;fontSize=16;" parent="F6fdnvKWjwfyb-HSmEis-4" vertex="1">
          <mxGeometry x="224.5" y="2019.5" width="95" height="95" as="geometry" />
        </mxCell>
        <mxCell id="F6fdnvKWjwfyb-HSmEis-111" value="" style="endArrow=classic;html=1;rounded=0;exitX=1;exitY=0.5;exitDx=0;exitDy=0;entryX=0;entryY=0.5;entryDx=0;entryDy=0;" parent="F6fdnvKWjwfyb-HSmEis-4" source="F6fdnvKWjwfyb-HSmEis-108" target="F6fdnvKWjwfyb-HSmEis-109" edge="1">
          <mxGeometry width="50" height="50" relative="1" as="geometry">
            <mxPoint x="239.5" y="2005" as="sourcePoint" />
            <mxPoint x="289.5" y="1955" as="targetPoint" />
          </mxGeometry>
        </mxCell>
        <mxCell id="wtH1HohZmeT8aonh87yZ-42" value="" style="endArrow=classic;html=1;rounded=0;entryX=1;entryY=0.5;entryDx=0;entryDy=0;exitX=0.5;exitY=0;exitDx=0;exitDy=0;" edge="1" parent="F6fdnvKWjwfyb-HSmEis-4" source="F6fdnvKWjwfyb-HSmEis-109" target="wtH1HohZmeT8aonh87yZ-40">
          <mxGeometry width="50" height="50" relative="1" as="geometry">
            <mxPoint x="150" y="2084" as="sourcePoint" />
            <mxPoint x="200" y="2034" as="targetPoint" />
            <Array as="points">
              <mxPoint x="272" y="1986" />
            </Array>
          </mxGeometry>
        </mxCell>
        <mxCell id="wtH1HohZmeT8aonh87yZ-43" value="" style="endArrow=classic;html=1;rounded=0;entryX=1;entryY=0.5;entryDx=0;entryDy=0;exitX=0.5;exitY=1;exitDx=0;exitDy=0;" edge="1" parent="F6fdnvKWjwfyb-HSmEis-4" source="F6fdnvKWjwfyb-HSmEis-109" target="wtH1HohZmeT8aonh87yZ-41">
          <mxGeometry width="50" height="50" relative="1" as="geometry">
            <mxPoint x="195" y="2189" as="sourcePoint" />
            <mxPoint x="245" y="2139" as="targetPoint" />
            <Array as="points">
              <mxPoint x="272" y="2133" />
            </Array>
          </mxGeometry>
        </mxCell>
        <mxCell id="F6fdnvKWjwfyb-HSmEis-145" value="Found &#xa;item" style="rhombus;fontSize=16;" parent="F6fdnvKWjwfyb-HSmEis-4" vertex="1">
          <mxGeometry x="179" y="1362.5" width="95" height="95" as="geometry" />
        </mxCell>
        <mxCell id="F6fdnvKWjwfyb-HSmEis-87" value="Found &#xa;item" style="rhombus;fontSize=16;" parent="F6fdnvKWjwfyb-HSmEis-4" vertex="1">
          <mxGeometry x="237" y="1611" width="95" height="95" as="geometry" />
        </mxCell>
        <mxCell id="wtH1HohZmeT8aonh87yZ-36" value="" style="endArrow=classic;html=1;rounded=0;entryX=1;entryY=0.5;entryDx=0;entryDy=0;exitX=0.5;exitY=0;exitDx=0;exitDy=0;" edge="1" parent="F6fdnvKWjwfyb-HSmEis-4" source="F6fdnvKWjwfyb-HSmEis-87" target="wtH1HohZmeT8aonh87yZ-33">
          <mxGeometry width="50" height="50" relative="1" as="geometry">
            <mxPoint x="213" y="1631" as="sourcePoint" />
            <mxPoint x="263" y="1581" as="targetPoint" />
            <Array as="points">
              <mxPoint x="286" y="1581" />
            </Array>
          </mxGeometry>
        </mxCell>
        <mxCell id="wtH1HohZmeT8aonh87yZ-34" value="" style="endArrow=classic;html=1;rounded=0;entryX=1;entryY=0.5;entryDx=0;entryDy=0;exitX=0.5;exitY=1;exitDx=0;exitDy=0;" edge="1" parent="F6fdnvKWjwfyb-HSmEis-4" source="F6fdnvKWjwfyb-HSmEis-87" target="wtH1HohZmeT8aonh87yZ-32">
          <mxGeometry width="50" height="50" relative="1" as="geometry">
            <mxPoint x="204" y="1763" as="sourcePoint" />
            <mxPoint x="254" y="1713" as="targetPoint" />
            <Array as="points">
              <mxPoint x="286" y="1746" />
            </Array>
          </mxGeometry>
        </mxCell>
        <mxCell id="F6fdnvKWjwfyb-HSmEis-93" value="&lt;font style=&quot;font-size: 14px;&quot;&gt;No&lt;/font&gt;" style="text;html=1;align=center;verticalAlign=middle;whiteSpace=wrap;rounded=0;" parent="F6fdnvKWjwfyb-HSmEis-4" vertex="1">
          <mxGeometry x="279" y="1698" width="60" height="30" as="geometry" />
        </mxCell>
        <mxCell id="F6fdnvKWjwfyb-HSmEis-91" value="&lt;font style=&quot;font-size: 14px;&quot;&gt;Yes&lt;/font&gt;" style="text;html=1;align=center;verticalAlign=middle;whiteSpace=wrap;rounded=0;" parent="F6fdnvKWjwfyb-HSmEis-4" vertex="1">
          <mxGeometry x="279" y="1581" width="60" height="30" as="geometry" />
        </mxCell>
        <mxCell id="F6fdnvKWjwfyb-HSmEis-58" value="&lt;span style=&quot;font-size: 16px;&quot;&gt;Verify&lt;/span&gt;&lt;br&gt;&lt;div&gt;&lt;span style=&quot;font-size: 16px;&quot;&gt;Blog&lt;/span&gt;&lt;/div&gt;" style="rounded=1;whiteSpace=wrap;html=1;" parent="F6fdnvKWjwfyb-HSmEis-4" vertex="1">
          <mxGeometry x="39" y="946.5" width="120" height="60" as="geometry" />
        </mxCell>
        <mxCell id="F6fdnvKWjwfyb-HSmEis-64" value="" style="endArrow=classic;html=1;rounded=0;exitX=1;exitY=0.5;exitDx=0;exitDy=0;entryX=0.25;entryY=1;entryDx=0;entryDy=0;" parent="F6fdnvKWjwfyb-HSmEis-4" source="F6fdnvKWjwfyb-HSmEis-58" target="F6fdnvKWjwfyb-HSmEis-54" edge="1">
          <mxGeometry width="50" height="50" relative="1" as="geometry">
            <mxPoint x="148" y="876.4999999999998" as="sourcePoint" />
            <mxPoint x="283" y="873" as="targetPoint" />
            <Array as="points">
              <mxPoint x="293" y="975" />
            </Array>
          </mxGeometry>
        </mxCell>
        <mxCell id="F6fdnvKWjwfyb-HSmEis-69" value="&lt;span style=&quot;font-size: 16px;&quot;&gt;Verify&lt;/span&gt;&lt;br&gt;&lt;div&gt;&lt;span style=&quot;font-size: 16px;&quot;&gt;Materials&lt;/span&gt;&lt;/div&gt;" style="rounded=1;whiteSpace=wrap;html=1;" parent="F6fdnvKWjwfyb-HSmEis-4" vertex="1">
          <mxGeometry x="78" y="1113" width="120" height="60" as="geometry" />
        </mxCell>
        <mxCell id="F6fdnvKWjwfyb-HSmEis-72" value="" style="endArrow=classic;html=1;rounded=0;exitX=1;exitY=0.5;exitDx=0;exitDy=0;entryX=0.5;entryY=1;entryDx=0;entryDy=0;" parent="F6fdnvKWjwfyb-HSmEis-4" source="F6fdnvKWjwfyb-HSmEis-69" target="F6fdnvKWjwfyb-HSmEis-54" edge="1">
          <mxGeometry width="50" height="50" relative="1" as="geometry">
            <mxPoint x="133" y="1015" as="sourcePoint" />
            <mxPoint x="284" y="999" as="targetPoint" />
            <Array as="points">
              <mxPoint x="318" y="1145" />
            </Array>
          </mxGeometry>
        </mxCell>
        <mxCell id="F6fdnvKWjwfyb-HSmEis-140" value="&lt;span style=&quot;font-size: 16px;&quot;&gt;Verify&lt;/span&gt;&lt;br&gt;&lt;div&gt;&lt;span style=&quot;font-size: 16px;&quot;&gt;Notes&lt;/span&gt;&lt;/div&gt;" style="rounded=1;whiteSpace=wrap;html=1;" parent="F6fdnvKWjwfyb-HSmEis-4" vertex="1">
          <mxGeometry x="87" y="1190" width="120" height="60" as="geometry" />
        </mxCell>
        <mxCell id="F6fdnvKWjwfyb-HSmEis-147" value="" style="endArrow=classic;html=1;rounded=0;exitX=1;exitY=0.5;exitDx=0;exitDy=0;entryX=0.75;entryY=1;entryDx=0;entryDy=0;" parent="F6fdnvKWjwfyb-HSmEis-4" source="F6fdnvKWjwfyb-HSmEis-140" target="F6fdnvKWjwfyb-HSmEis-54" edge="1">
          <mxGeometry width="50" height="50" relative="1" as="geometry">
            <mxPoint x="133" y="1090" as="sourcePoint" />
            <mxPoint x="238" y="1095" as="targetPoint" />
            <Array as="points">
              <mxPoint x="353" y="1220" />
            </Array>
          </mxGeometry>
        </mxCell>
        <mxCell id="F6fdnvKWjwfyb-HSmEis-144" value="&lt;span style=&quot;font-size: 16px;&quot;&gt;Search Database&lt;/span&gt;" style="rounded=1;whiteSpace=wrap;html=1;" parent="F6fdnvKWjwfyb-HSmEis-4" vertex="1">
          <mxGeometry x="18" y="1380" width="120" height="60" as="geometry" />
        </mxCell>
        <mxCell id="F6fdnvKWjwfyb-HSmEis-151" value="" style="endArrow=classic;html=1;rounded=0;exitX=1;exitY=0.5;exitDx=0;exitDy=0;entryX=0;entryY=0.5;entryDx=0;entryDy=0;" parent="F6fdnvKWjwfyb-HSmEis-4" source="F6fdnvKWjwfyb-HSmEis-144" target="F6fdnvKWjwfyb-HSmEis-145" edge="1">
          <mxGeometry width="50" height="50" relative="1" as="geometry">
            <mxPoint x="81" y="1380" as="sourcePoint" />
            <mxPoint x="131" y="1330" as="targetPoint" />
          </mxGeometry>
        </mxCell>
        <mxCell id="wtH1HohZmeT8aonh87yZ-1" value="&lt;span style=&quot;font-size: 16px;&quot;&gt;Show not&amp;nbsp;&lt;/span&gt;&lt;div&gt;&lt;span style=&quot;font-size: 16px;&quot;&gt;found&lt;/span&gt;&lt;/div&gt;" style="rounded=1;whiteSpace=wrap;html=1;" vertex="1" parent="F6fdnvKWjwfyb-HSmEis-4">
          <mxGeometry x="15" y="1457.5" width="120" height="60" as="geometry" />
        </mxCell>
        <mxCell id="wtH1HohZmeT8aonh87yZ-2" value="" style="endArrow=classic;html=1;rounded=0;exitX=0.5;exitY=1;exitDx=0;exitDy=0;entryX=1;entryY=0.5;entryDx=0;entryDy=0;" edge="1" parent="F6fdnvKWjwfyb-HSmEis-4" source="F6fdnvKWjwfyb-HSmEis-145" target="wtH1HohZmeT8aonh87yZ-1">
          <mxGeometry width="50" height="50" relative="1" as="geometry">
            <mxPoint x="151" y="1335" as="sourcePoint" />
            <mxPoint x="201" y="1285" as="targetPoint" />
            <Array as="points">
              <mxPoint x="224" y="1488" />
            </Array>
          </mxGeometry>
        </mxCell>
        <mxCell id="F6fdnvKWjwfyb-HSmEis-86" value="&lt;span style=&quot;font-size: 16px;&quot;&gt;Search Database&lt;/span&gt;" style="rounded=1;whiteSpace=wrap;html=1;" parent="F6fdnvKWjwfyb-HSmEis-4" vertex="1">
          <mxGeometry x="21" y="1626" width="120" height="60" as="geometry" />
        </mxCell>
        <mxCell id="F6fdnvKWjwfyb-HSmEis-89" value="" style="endArrow=classic;html=1;rounded=0;exitX=1;exitY=0.5;exitDx=0;exitDy=0;entryX=0;entryY=0.5;entryDx=0;entryDy=0;" parent="F6fdnvKWjwfyb-HSmEis-4" source="F6fdnvKWjwfyb-HSmEis-86" target="F6fdnvKWjwfyb-HSmEis-87" edge="1">
          <mxGeometry width="50" height="50" relative="1" as="geometry">
            <mxPoint x="146" y="1588" as="sourcePoint" />
            <mxPoint x="196" y="1538" as="targetPoint" />
          </mxGeometry>
        </mxCell>
        <mxCell id="F6fdnvKWjwfyb-HSmEis-45" value="" style="endArrow=classic;html=1;rounded=0;entryX=0.75;entryY=0;entryDx=0;entryDy=0;exitX=0.5;exitY=1;exitDx=0;exitDy=0;" parent="1" source="F6fdnvKWjwfyb-HSmEis-34" target="F6fdnvKWjwfyb-HSmEis-44" edge="1">
          <mxGeometry width="50" height="50" relative="1" as="geometry">
            <mxPoint x="1427.5" y="959" as="sourcePoint" />
            <mxPoint x="565" y="920" as="targetPoint" />
            <Array as="points">
              <mxPoint x="1539" y="900" />
              <mxPoint x="548" y="900" />
            </Array>
          </mxGeometry>
        </mxCell>
        <mxCell id="F6fdnvKWjwfyb-HSmEis-180" value="" style="endArrow=classic;html=1;rounded=0;exitX=1;exitY=0.5;exitDx=0;exitDy=0;entryX=0.5;entryY=0;entryDx=0;entryDy=0;" parent="1" source="F6fdnvKWjwfyb-HSmEis-6" target="F6fdnvKWjwfyb-HSmEis-124" edge="1">
          <mxGeometry width="50" height="50" relative="1" as="geometry">
            <mxPoint x="970" y="350" as="sourcePoint" />
            <mxPoint x="1020" y="300" as="targetPoint" />
            <Array as="points">
              <mxPoint x="1995" y="305" />
            </Array>
          </mxGeometry>
        </mxCell>
        <mxCell id="F6fdnvKWjwfyb-HSmEis-129" value="" style="endArrow=classic;html=1;rounded=0;exitX=1;exitY=0.5;exitDx=0;exitDy=0;entryX=0.5;entryY=0;entryDx=0;entryDy=0;" parent="1" source="F6fdnvKWjwfyb-HSmEis-125" target="F6fdnvKWjwfyb-HSmEis-126" edge="1">
          <mxGeometry width="50" height="50" relative="1" as="geometry">
            <mxPoint x="705" y="1105" as="sourcePoint" />
            <mxPoint x="755" y="1055" as="targetPoint" />
            <Array as="points">
              <mxPoint x="805" y="1005" />
              <mxPoint x="838" y="1005" />
            </Array>
          </mxGeometry>
        </mxCell>
        <mxCell id="F6fdnvKWjwfyb-HSmEis-127" value="" style="endArrow=classic;html=1;rounded=0;exitX=1;exitY=0.25;exitDx=0;exitDy=0;entryX=0;entryY=0.5;entryDx=0;entryDy=0;" parent="1" source="F6fdnvKWjwfyb-HSmEis-44" target="F6fdnvKWjwfyb-HSmEis-125" edge="1">
          <mxGeometry width="50" height="50" relative="1" as="geometry">
            <mxPoint x="575" y="1005" as="sourcePoint" />
            <mxPoint x="755" y="910" as="targetPoint" />
            <Array as="points">
              <mxPoint x="630" y="1105" />
              <mxPoint x="630" y="1005" />
            </Array>
          </mxGeometry>
        </mxCell>
        <mxCell id="wtH1HohZmeT8aonh87yZ-14" value="" style="endArrow=classic;html=1;rounded=0;exitX=1;exitY=0.5;exitDx=0;exitDy=0;entryX=0;entryY=0.5;entryDx=0;entryDy=0;" edge="1" parent="1" source="wtH1HohZmeT8aonh87yZ-4" target="wtH1HohZmeT8aonh87yZ-5">
          <mxGeometry width="50" height="50" relative="1" as="geometry">
            <mxPoint x="1160" y="1140" as="sourcePoint" />
            <mxPoint x="1210" y="1090" as="targetPoint" />
          </mxGeometry>
        </mxCell>
        <mxCell id="wtH1HohZmeT8aonh87yZ-19" value="" style="endArrow=classic;html=1;rounded=0;entryX=1;entryY=0.75;entryDx=0;entryDy=0;exitX=0;exitY=0.5;exitDx=0;exitDy=0;" edge="1" parent="1" source="wtH1HohZmeT8aonh87yZ-7" target="wtH1HohZmeT8aonh87yZ-4">
          <mxGeometry width="50" height="50" relative="1" as="geometry">
            <mxPoint x="1180" y="1180" as="sourcePoint" />
            <mxPoint x="1230" y="1130" as="targetPoint" />
          </mxGeometry>
        </mxCell>
        <mxCell id="wtH1HohZmeT8aonh87yZ-22" value="" style="endArrow=classic;html=1;rounded=0;entryX=1;entryY=0.5;entryDx=0;entryDy=0;exitX=0;exitY=0.5;exitDx=0;exitDy=0;" edge="1" parent="1" source="wtH1HohZmeT8aonh87yZ-11" target="wtH1HohZmeT8aonh87yZ-3">
          <mxGeometry width="50" height="50" relative="1" as="geometry">
            <mxPoint x="1107" y="1091" as="sourcePoint" />
            <mxPoint x="1157" y="1041" as="targetPoint" />
          </mxGeometry>
        </mxCell>
        <mxCell id="wtH1HohZmeT8aonh87yZ-23" value="" style="endArrow=classic;html=1;rounded=0;exitX=0.5;exitY=0;exitDx=0;exitDy=0;entryX=0.25;entryY=0;entryDx=0;entryDy=0;" edge="1" parent="1" source="F6fdnvKWjwfyb-HSmEis-54" target="F6fdnvKWjwfyb-HSmEis-44">
          <mxGeometry width="50" height="50" relative="1" as="geometry">
            <mxPoint x="1128" y="878" as="sourcePoint" />
            <mxPoint x="1178" y="828" as="targetPoint" />
            <Array as="points">
              <mxPoint x="1611" y="861" />
              <mxPoint x="488" y="858" />
            </Array>
          </mxGeometry>
        </mxCell>
        <mxCell id="wtH1HohZmeT8aonh87yZ-26" value="" style="endArrow=classic;html=1;rounded=0;entryX=1;entryY=0.5;entryDx=0;entryDy=0;exitX=0;exitY=1;exitDx=0;exitDy=0;" edge="1" parent="1" source="F6fdnvKWjwfyb-HSmEis-152" target="wtH1HohZmeT8aonh87yZ-8">
          <mxGeometry width="50" height="50" relative="1" as="geometry">
            <mxPoint x="1491" y="1613" as="sourcePoint" />
            <mxPoint x="1541" y="1563" as="targetPoint" />
            <Array as="points">
              <mxPoint x="1513" y="1565" />
            </Array>
          </mxGeometry>
        </mxCell>
        <mxCell id="wtH1HohZmeT8aonh87yZ-27" value="" style="endArrow=classic;html=1;rounded=0;exitX=0;exitY=0.5;exitDx=0;exitDy=0;entryX=1;entryY=0.5;entryDx=0;entryDy=0;" edge="1" parent="1" source="wtH1HohZmeT8aonh87yZ-8" target="F6fdnvKWjwfyb-HSmEis-142">
          <mxGeometry width="50" height="50" relative="1" as="geometry">
            <mxPoint x="715" y="1385" as="sourcePoint" />
            <mxPoint x="1230.7106781186549" y="1575" as="targetPoint" />
          </mxGeometry>
        </mxCell>
        <mxCell id="wtH1HohZmeT8aonh87yZ-35" value="" style="endArrow=classic;html=1;rounded=0;entryX=0.5;entryY=1;entryDx=0;entryDy=0;exitX=0;exitY=0.5;exitDx=0;exitDy=0;" edge="1" parent="1" source="wtH1HohZmeT8aonh87yZ-32" target="F6fdnvKWjwfyb-HSmEis-75">
          <mxGeometry width="50" height="50" relative="1" as="geometry">
            <mxPoint x="1140" y="2021" as="sourcePoint" />
            <mxPoint x="1190" y="1971" as="targetPoint" />
            <Array as="points">
              <mxPoint x="1059" y="1986" />
            </Array>
          </mxGeometry>
        </mxCell>
        <mxCell id="wtH1HohZmeT8aonh87yZ-37" value="" style="endArrow=classic;html=1;rounded=0;entryX=1;entryY=0.5;entryDx=0;entryDy=0;exitX=0;exitY=0.5;exitDx=0;exitDy=0;" edge="1" parent="1" source="wtH1HohZmeT8aonh87yZ-33" target="F6fdnvKWjwfyb-HSmEis-74">
          <mxGeometry width="50" height="50" relative="1" as="geometry">
            <mxPoint x="1203" y="1877" as="sourcePoint" />
            <mxPoint x="1253" y="1827" as="targetPoint" />
            <Array as="points">
              <mxPoint x="1239" y="1821" />
              <mxPoint x="1239" y="1780" />
            </Array>
          </mxGeometry>
        </mxCell>
        <mxCell id="F6fdnvKWjwfyb-HSmEis-117" value="" style="endArrow=classic;html=1;rounded=0;exitX=1;exitY=0.5;exitDx=0;exitDy=0;entryX=0;entryY=0.5;entryDx=0;entryDy=0;" parent="1" source="F6fdnvKWjwfyb-HSmEis-99" target="F6fdnvKWjwfyb-HSmEis-116" edge="1">
          <mxGeometry width="50" height="50" relative="1" as="geometry">
            <mxPoint x="1286.5" y="2140" as="sourcePoint" />
            <mxPoint x="1336.5" y="2090" as="targetPoint" />
          </mxGeometry>
        </mxCell>
        <mxCell id="F6fdnvKWjwfyb-HSmEis-110" value="" style="endArrow=classic;html=1;rounded=0;exitX=1;exitY=0.5;exitDx=0;exitDy=0;entryX=0;entryY=0.5;entryDx=0;entryDy=0;" parent="1" source="F6fdnvKWjwfyb-HSmEis-96" target="F6fdnvKWjwfyb-HSmEis-108" edge="1">
          <mxGeometry width="50" height="50" relative="1" as="geometry">
            <mxPoint x="1131.5" y="2325" as="sourcePoint" />
            <mxPoint x="1181.5" y="2275" as="targetPoint" />
          </mxGeometry>
        </mxCell>
        <mxCell id="wtH1HohZmeT8aonh87yZ-44" value="" style="endArrow=classic;html=1;rounded=0;entryX=0.5;entryY=1;entryDx=0;entryDy=0;exitX=0;exitY=0.5;exitDx=0;exitDy=0;" edge="1" parent="1" source="wtH1HohZmeT8aonh87yZ-41" target="F6fdnvKWjwfyb-HSmEis-96">
          <mxGeometry width="50" height="50" relative="1" as="geometry">
            <mxPoint x="1167" y="2414" as="sourcePoint" />
            <mxPoint x="1217" y="2364" as="targetPoint" />
            <Array as="points">
              <mxPoint x="992" y="2373" />
            </Array>
          </mxGeometry>
        </mxCell>
        <mxCell id="wtH1HohZmeT8aonh87yZ-45" value="" style="endArrow=classic;html=1;rounded=0;exitX=0;exitY=0.25;exitDx=0;exitDy=0;entryX=0.25;entryY=1;entryDx=0;entryDy=0;" edge="1" parent="1" source="F6fdnvKWjwfyb-HSmEis-116" target="F6fdnvKWjwfyb-HSmEis-44">
          <mxGeometry width="50" height="50" relative="1" as="geometry">
            <mxPoint x="735" y="2153" as="sourcePoint" />
            <mxPoint x="785" y="2103" as="targetPoint" />
            <Array as="points">
              <mxPoint x="672" y="2106" />
            </Array>
          </mxGeometry>
        </mxCell>
        <mxCell id="wtH1HohZmeT8aonh87yZ-47" value="" style="endArrow=classic;html=1;rounded=0;entryX=0.5;entryY=1;entryDx=0;entryDy=0;exitX=0;exitY=0.5;exitDx=0;exitDy=0;" edge="1" parent="1" source="wtH1HohZmeT8aonh87yZ-40" target="F6fdnvKWjwfyb-HSmEis-95">
          <mxGeometry width="50" height="50" relative="1" as="geometry">
            <mxPoint x="1116" y="2294" as="sourcePoint" />
            <mxPoint x="1166" y="2244" as="targetPoint" />
            <Array as="points">
              <mxPoint x="991" y="2226" />
            </Array>
          </mxGeometry>
        </mxCell>
        <mxCell id="F6fdnvKWjwfyb-HSmEis-63" value="" style="endArrow=classic;html=1;rounded=0;exitX=1;exitY=0.5;exitDx=0;exitDy=0;entryX=0;entryY=0.5;entryDx=0;entryDy=0;" parent="1" source="F6fdnvKWjwfyb-HSmEis-61" target="F6fdnvKWjwfyb-HSmEis-58" edge="1">
          <mxGeometry width="50" height="50" relative="1" as="geometry">
            <mxPoint x="903" y="1347" as="sourcePoint" />
            <mxPoint x="953" y="1297" as="targetPoint" />
          </mxGeometry>
        </mxCell>
        <mxCell id="F6fdnvKWjwfyb-HSmEis-71" value="" style="endArrow=classic;html=1;rounded=0;exitX=1;exitY=0.5;exitDx=0;exitDy=0;entryX=0;entryY=0.5;entryDx=0;entryDy=0;" parent="1" source="F6fdnvKWjwfyb-HSmEis-68" target="F6fdnvKWjwfyb-HSmEis-69" edge="1">
          <mxGeometry width="50" height="50" relative="1" as="geometry">
            <mxPoint x="1160" y="1447" as="sourcePoint" />
            <mxPoint x="1210" y="1397" as="targetPoint" />
          </mxGeometry>
        </mxCell>
        <mxCell id="F6fdnvKWjwfyb-HSmEis-146" value="" style="endArrow=classic;html=1;rounded=0;exitX=1;exitY=0.5;exitDx=0;exitDy=0;entryX=0;entryY=0.5;entryDx=0;entryDy=0;" parent="1" source="F6fdnvKWjwfyb-HSmEis-139" target="F6fdnvKWjwfyb-HSmEis-140" edge="1">
          <mxGeometry width="50" height="50" relative="1" as="geometry">
            <mxPoint x="1143" y="1470" as="sourcePoint" />
            <mxPoint x="1223" y="1430" as="targetPoint" />
          </mxGeometry>
        </mxCell>
        <mxCell id="F6fdnvKWjwfyb-HSmEis-150" value="" style="endArrow=classic;html=1;rounded=0;exitX=1;exitY=0.5;exitDx=0;exitDy=0;entryX=0;entryY=0.5;entryDx=0;entryDy=0;" parent="1" source="F6fdnvKWjwfyb-HSmEis-143" target="F6fdnvKWjwfyb-HSmEis-144" edge="1">
          <mxGeometry width="50" height="50" relative="1" as="geometry">
            <mxPoint x="1188" y="1665" as="sourcePoint" />
            <mxPoint x="1238" y="1615" as="targetPoint" />
          </mxGeometry>
        </mxCell>
        <mxCell id="wtH1HohZmeT8aonh87yZ-28" value="" style="endArrow=classic;html=1;rounded=0;entryX=0.5;entryY=1;entryDx=0;entryDy=0;exitX=-0.013;exitY=0.632;exitDx=0;exitDy=0;exitPerimeter=0;" edge="1" parent="1" source="wtH1HohZmeT8aonh87yZ-1" target="F6fdnvKWjwfyb-HSmEis-143">
          <mxGeometry width="50" height="50" relative="1" as="geometry">
            <mxPoint x="1124" y="1775" as="sourcePoint" />
            <mxPoint x="1174" y="1725" as="targetPoint" />
            <Array as="points">
              <mxPoint x="1078" y="1735" />
            </Array>
          </mxGeometry>
        </mxCell>
        <mxCell id="F6fdnvKWjwfyb-HSmEis-88" value="" style="endArrow=classic;html=1;rounded=0;exitX=1;exitY=0.5;exitDx=0;exitDy=0;entryX=0;entryY=0.5;entryDx=0;entryDy=0;" parent="1" source="F6fdnvKWjwfyb-HSmEis-75" target="F6fdnvKWjwfyb-HSmEis-86" edge="1">
          <mxGeometry width="50" height="50" relative="1" as="geometry">
            <mxPoint x="1167" y="1905" as="sourcePoint" />
            <mxPoint x="1217" y="1855" as="targetPoint" />
          </mxGeometry>
        </mxCell>
        <mxCell id="wtH1HohZmeT8aonh87yZ-50" value="" style="endArrow=classic;html=1;rounded=0;entryX=0.5;entryY=1;entryDx=0;entryDy=0;exitX=0.5;exitY=1;exitDx=0;exitDy=0;" edge="1" parent="1" source="F6fdnvKWjwfyb-HSmEis-124" target="F6fdnvKWjwfyb-HSmEis-159">
          <mxGeometry width="50" height="50" relative="1" as="geometry">
            <mxPoint x="564" y="2534" as="sourcePoint" />
            <mxPoint x="614" y="2484" as="targetPoint" />
            <Array as="points">
              <mxPoint x="2034" y="516" />
              <mxPoint x="2022" y="627" />
              <mxPoint x="1944" y="666" />
              <mxPoint x="1977" y="2523" />
              <mxPoint x="558" y="2523" />
            </Array>
          </mxGeometry>
        </mxCell>
      </root>
    </mxGraphModel>
  </diagram>
</mxfile>
